<svg width="182" height="154" viewBox="0 0 182 154" fill="none" xmlns="http://www.w3.org/2000/svg">
<path d="M67.2959 34.5789V26.6842C67.2959 13.6038 77.9081 3 90.9997 3C104.091 3 114.703 13.6038 114.703 26.6842V34.5789" stroke="white" stroke-width="2" stroke-miterlimit="3.8637" stroke-linecap="round" stroke-dasharray="10 10"/>
<line x1="154.541" y1="108.545" x2="180.541" y2="82.5448" stroke="white" stroke-width="2"/>
<line x1="0.707107" y1="82.2929" x2="26.7071" y2="108.293" stroke="white" stroke-width="2"/>
<path d="M26.1636 105.402C30.4079 126.606 32.53 137.208 39.5422 144.036C40.8382 145.298 42.2403 146.447 43.733 147.469C51.8095 153 62.6305 153 84.2723 153H97.7274C119.37 153 130.191 153 138.267 147.469C139.76 146.447 141.161 145.298 142.458 144.036C149.47 137.208 151.592 126.606 155.836 105.402C161.93 74.9599 164.977 59.7385 157.963 48.9528C156.693 46.9999 155.211 45.1933 153.544 43.5662C144.334 34.5791 128.798 34.5791 97.7274 34.5791H84.2723C53.2016 34.5791 37.6663 34.5791 28.4568 43.5662C26.7892 45.1933 25.3069 46.9999 24.0371 48.9528C17.0234 59.7385 20.0701 74.9599 26.1636 105.402Z" fill="#00BEFF" stroke="#00BEFF" stroke-width="2"/>
<path d="M66.9002 82.2637C69.3875 82.2637 71.4039 80.249 71.4039 77.7637C71.4039 75.2784 69.3875 73.2637 66.9002 73.2637C64.4129 73.2637 62.3965 75.2784 62.3965 77.7637C62.3965 80.249 64.4129 82.2637 66.9002 82.2637Z" fill="black"/>
<path d="M114.308 82.2627C116.796 82.2627 118.812 80.248 118.812 77.7627C118.812 75.2774 116.796 73.2627 114.308 73.2627C111.821 73.2627 109.805 75.2774 109.805 77.7627C109.805 80.248 111.821 82.2627 114.308 82.2627Z" fill="black"/>
<path d="M111.075 100C111.075 107.68 101.889 112 90.558 112C79.2268 112 70.041 106.627 70.041 100" stroke="black" stroke-width="1.5"/>
</svg>
