<svg width="182" height="154" viewBox="0 0 182 154" fill="none" xmlns="http://www.w3.org/2000/svg">
<path d="M26.1585 105.402C30.3993 126.606 32.5197 137.207 39.526 144.036C40.821 145.298 42.2219 146.447 43.7134 147.469C51.7832 153 62.5952 153 84.2192 153H97.6632C119.288 153 130.1 153 138.17 147.469C139.661 146.447 141.061 145.298 142.357 144.036C149.363 137.207 151.483 126.606 155.724 105.402C161.813 74.9597 164.857 59.7384 157.849 48.9527C156.58 46.9997 155.099 45.1932 153.433 43.566C144.231 34.5789 128.708 34.5789 97.6632 34.5789H84.2192C53.1741 34.5789 37.6517 34.5789 28.4498 43.566C26.7836 45.1932 25.3026 46.9997 24.0337 48.9527C17.0259 59.7384 20.0701 74.9597 26.1585 105.402Z" fill="#9DD8EC" stroke="#1C274C" stroke-width="2"/>
<path d="M114.23 82.2632C116.716 82.2632 118.73 80.2484 118.73 77.7632C118.73 75.2779 116.716 73.2632 114.23 73.2632C111.745 73.2632 109.73 75.2779 109.73 77.7632C109.73 80.2484 111.745 82.2632 114.23 82.2632Z" fill="#1C274C"/>
<path d="M66.8613 82.2632C69.3466 82.2632 71.3613 80.2485 71.3613 77.7632C71.3613 75.2779 69.3466 73.2632 66.8613 73.2632C64.376 73.2632 62.3613 75.2779 62.3613 77.7632C62.3613 80.2485 64.376 82.2632 66.8613 82.2632Z" fill="#1C274C"/>
<path d="M67.2567 32.5789V24.6842C67.2567 11.6038 77.8601 1 90.9409 1C104.022 1 114.625 11.6038 114.625 24.6842V32.5789" stroke="#1C274C" stroke-width="2" stroke-miterlimit="3.8637" stroke-linecap="round" stroke-dasharray="10 10"/>
<path d="M111 100C111 107.68 101.822 112 90.5 112C79.1782 112 70 106.627 70 100" stroke="#1C274C" stroke-width="1.5"/>
<line x1="154.541" y1="108.545" x2="180.541" y2="82.5446" stroke="#1C274C" stroke-width="2"/>
<line x1="0.707107" y1="82.2929" x2="26.7071" y2="108.293" stroke="#1C274C" stroke-width="2"/>
</svg>
