<svg width="250" height="115" viewBox="0 0 250 115" fill="none" xmlns="http://www.w3.org/2000/svg">
<g opacity="0.75">
<path d="M86.0228 84.8774C88.6221 97.8507 89.9217 104.337 94.2161 108.516C95.0098 109.287 95.8685 109.99 96.7826 110.616C101.729 114 108.356 114 121.61 114H129.85C143.104 114 149.731 114 154.677 110.616C155.591 109.99 156.45 109.287 157.244 108.516C161.538 104.337 162.838 97.8507 165.437 84.8774C169.169 66.2516 171.035 56.9385 166.739 50.3394C165.962 49.1445 165.054 48.0392 164.033 47.0436C158.393 41.5449 148.878 41.5449 129.85 41.5449H121.61C102.581 41.5449 93.0672 41.5449 87.4272 47.0436C86.4059 48.0392 85.4981 49.1445 84.7204 50.3394C80.4251 56.9385 82.291 66.2516 86.0228 84.8774Z" fill="#00BEFF"/>
<path d="M140.005 70.7204C141.529 70.7204 142.763 69.4878 142.763 67.9672C142.763 66.4466 141.529 65.2139 140.005 65.2139C138.482 65.2139 137.247 66.4466 137.247 67.9672C137.247 69.4878 138.482 70.7204 140.005 70.7204Z" fill="black"/>
<path d="M110.971 70.7204C112.494 70.7204 113.729 69.4878 113.729 67.9672C113.729 66.4466 112.494 65.2139 110.971 65.2139C109.448 65.2139 108.213 66.4466 108.213 67.9672C108.213 69.4878 109.448 70.7204 110.971 70.7204Z" fill="black"/>
<path d="M111.213 40.3213V35.491C111.213 27.4879 117.712 21 125.73 21C133.747 21 140.246 27.4879 140.246 35.491V40.3213" stroke="white" stroke-width="2" stroke-miterlimit="3.8637" stroke-linecap="round" stroke-dasharray="10 10"/>
<path d="M138.025 81.5723C138.025 86.2712 132.399 88.9144 125.46 88.9144C118.52 88.9144 112.895 85.6272 112.895 81.5723" stroke="black" stroke-width="1.5"/>
<path d="M79 84.1754V83.1316C79 81.4021 81.9101 80 85.5 80C89.09 80 92 81.4021 92 83.1316V84.1754" stroke="white" stroke-width="2" stroke-linecap="round"/>
<path d="M69.4586 93.2989C70.2647 88.9354 70.6677 86.7536 72.1979 85.4647C73.7281 84.1758 75.9152 84.1758 80.2893 84.1758H87.7107C92.0849 84.1758 94.2719 84.1758 95.8022 85.4647C97.3324 86.7536 97.7353 88.9354 98.5414 93.2989L99.9189 100.755C101.052 106.891 101.619 109.959 99.9668 111.98C98.3144 114 95.2391 114 89.0882 114H78.9119C72.7611 114 69.6856 114 68.0332 111.98C66.3808 109.959 66.9476 106.891 68.0811 100.755L69.4586 93.2989Z" fill="#FF0066"/>
<path d="M88.4387 101.504L87.9793 101.963C88.2361 102.199 88.6412 102.199 88.8981 101.963L88.4387 101.504ZM87.9839 104.108C87.6137 103.847 87.2058 103.523 86.8971 103.181C86.5709 102.819 86.4458 102.539 86.4458 102.357H85.1172C85.1172 103.01 85.508 103.588 85.8921 104.013C86.2936 104.458 86.7904 104.847 87.1979 105.134L87.9839 104.108ZM86.4458 102.357C86.4458 101.868 86.6784 101.655 86.8815 101.587C87.1032 101.513 87.5138 101.536 87.9793 101.963L88.8981 101.044C88.1679 100.375 87.2499 100.115 86.4419 100.386C85.6154 100.664 85.1172 101.426 85.1172 102.357H86.4458ZM89.6794 105.134C90.0869 104.847 90.5837 104.458 90.9852 104.013C91.3694 103.588 91.7602 103.01 91.7602 102.357H90.4316C90.4316 102.539 90.3065 102.819 89.9803 103.181C89.6715 103.523 89.2636 103.847 88.8935 104.108L89.6794 105.134ZM91.7602 102.357C91.7602 101.426 91.2619 100.664 90.4354 100.386C89.6274 100.115 88.7094 100.375 87.9793 101.044L88.8981 101.963C89.3636 101.536 89.7742 101.513 89.9959 101.587C90.199 101.655 90.4316 101.868 90.4316 102.357H91.7602ZM87.1979 105.134C87.5244 105.363 87.8909 105.649 88.4387 105.649V104.376C88.4171 104.376 88.4037 104.376 88.3555 104.352C88.2794 104.313 88.1843 104.248 87.9839 104.108L87.1979 105.134ZM88.8935 104.108C88.6931 104.248 88.5979 104.313 88.5218 104.352C88.4737 104.376 88.4603 104.376 88.4387 104.376V105.649C88.9864 105.649 89.3529 105.363 89.6794 105.134L88.8935 104.108Z" fill="black"/>
<path d="M89.6465 96.7022C90.4803 96.7022 91.1563 96.0345 91.1563 95.211C91.1563 94.3874 90.4803 93.7197 89.6465 93.7197C88.8127 93.7197 88.1367 94.3874 88.1367 95.211C88.1367 96.0345 88.8127 96.7022 89.6465 96.7022Z" fill="black"/>
<path d="M83.6074 96.7022C84.4412 96.7022 85.1172 96.0345 85.1172 95.211C85.1172 94.3874 84.4412 93.7197 83.6074 93.7197C82.7736 93.7197 82.0977 94.3874 82.0977 95.211C82.0977 96.0345 82.7736 96.7022 83.6074 96.7022Z" fill="black"/>
<path d="M174.429 54.9497C176.79 37.1531 177.971 28.2547 181.872 22.5235C182.593 21.4643 183.373 20.5004 184.204 19.6423C188.697 15 194.717 15 206.757 15H214.243C226.283 15 232.303 15 236.797 19.6423C237.627 20.5004 238.407 21.4643 239.128 22.5235C243.029 28.2547 244.21 37.1531 246.571 54.9497C249.961 80.5001 251.656 93.2753 247.754 102.328C247.048 103.967 246.223 105.483 245.295 106.849C240.172 114.392 231.529 114.392 214.243 114.392H206.757C189.471 114.392 180.828 114.392 175.705 106.849C174.777 105.483 173.952 103.967 173.246 102.328C169.344 93.2753 171.039 80.5001 174.429 54.9497Z" fill="#00F8FF"/>
<path d="M196 14.5109V11.1332C196 5.53678 201.895 1 209.167 1C216.439 1 222.333 5.53678 222.333 11.1332V14.5109" stroke="white" stroke-width="2" stroke-linecap="round"/>
<path fill-rule="evenodd" clip-rule="evenodd" d="M194.257 62.1985C194.257 62.1938 194.257 62.1892 194.257 62.1846C194.257 61.6323 194.705 61.1846 195.257 61.1846H219.615C220.167 61.1846 220.615 61.6323 220.615 62.1846C220.615 62.1886 220.615 62.1927 220.615 62.1968L220.669 62.2175L220.572 62.4754C220.559 62.5183 220.543 62.5599 220.524 62.6001L220.315 63.1527C218.41 68.186 213.601 71.7824 207.593 71.7824C201.614 71.7824 196.476 68.2123 194.561 63.1527L194.368 62.6419C194.333 62.5755 194.306 62.5047 194.288 62.4307L194.207 62.2175L194.257 62.1985ZM196.745 63.1846C198.557 67.0427 202.71 69.7824 207.593 69.7824C212.452 69.7824 216.346 67.064 218.135 63.1846H196.745Z" fill="black"/>
<path d="M212.977 53.201C214.5 53.201 215.735 51.9637 215.735 50.4374C215.735 48.9111 214.5 47.6738 212.977 47.6738C211.454 47.6738 210.219 48.9111 210.219 50.4374C210.219 51.9637 211.454 53.201 212.977 53.201Z" fill="black"/>
<path d="M196.805 53.201C198.328 53.201 199.563 51.9637 199.563 50.4374C199.563 48.9111 198.328 47.6738 196.805 47.6738C195.282 47.6738 194.047 48.9111 194.047 50.4374C194.047 51.9637 195.282 53.201 196.805 53.201Z" fill="black"/>
<path d="M147.693 101.031C148.859 106.808 149.441 109.697 151.367 111.558C151.723 111.901 152.108 112.214 152.518 112.493C154.736 114 157.708 114 163.652 114H167.348C173.292 114 176.264 114 178.482 112.493C178.892 112.214 179.277 111.901 179.633 111.558C181.559 109.697 182.141 106.808 183.307 101.031C184.981 92.7361 185.818 88.5887 183.891 85.6499C183.542 85.1177 183.135 84.6255 182.677 84.1821C180.148 81.7334 175.881 81.7334 167.348 81.7334H163.652C155.119 81.7334 150.852 81.7334 148.323 84.1821C147.865 84.6255 147.458 85.1177 147.109 85.6499C145.182 88.5887 146.019 92.7361 147.693 101.031Z" fill="#FFAB00"/>
<path d="M166.971 91.9997C167.987 91.9997 168.811 91.1789 168.811 90.1663C168.811 89.1538 167.987 88.333 166.971 88.333C165.955 88.333 165.132 89.1538 165.132 90.1663C165.132 91.1789 165.955 91.9997 166.971 91.9997Z" fill="black"/>
<path d="M171.386 104.466C172.402 104.466 173.226 103.646 173.226 102.633C173.226 101.621 172.402 100.8 171.386 100.8C170.371 100.8 169.547 101.621 169.547 102.633C169.547 103.646 170.371 104.466 171.386 104.466Z" fill="black"/>
<path d="M156.67 91.9997C157.686 91.9997 158.509 91.1789 158.509 90.1663C158.509 89.1538 157.686 88.333 156.67 88.333C155.654 88.333 154.83 89.1538 154.83 90.1663C154.83 91.1789 155.654 91.9997 156.67 91.9997Z" fill="black"/>
<path d="M161.453 81V78.25C161.453 73.6937 163.265 70 165.5 70C167.736 70 169.547 73.6937 169.547 78.25V81" stroke="white" stroke-width="2" stroke-linecap="round"/>
<path d="M13.3107 74.2393C9.93527 76.0353 9.04617 79.0753 7.26802 85.1553L4.22956 95.5446C1.7291 104.094 0.478914 108.369 4.1239 111.185C7.76892 114 14.5529 114 28.1209 114H50.5686C64.1368 114 70.9207 114 74.5656 111.185C78.2105 108.369 76.9603 104.094 74.4599 95.5446L71.4214 85.1553C69.6433 79.0753 68.7544 76.0353 65.3789 74.2393C62.0034 72.4434 57.1791 72.4434 47.5301 72.4434H31.1594C21.5105 72.4434 16.6861 72.4434 13.3107 74.2393Z" fill="#3000FF"/>
<path d="M19.6719 72.443V70.5823C19.6719 67.4993 27.5158 65 37.1924 65C46.8689 65 54.7129 67.4993 54.7129 70.5823V72.443" stroke="white" stroke-width="2" stroke-linecap="round"/>
<path d="M30.2344 89.1895C30.7265 90.2735 32.0546 91.0502 33.6155 91.0502C35.1765 91.0502 36.5045 90.2735 36.9967 89.1895" stroke="black" stroke-width="2" stroke-linecap="round"/>
<path d="M27.0654 99.2441C27.3148 100.489 28.7162 101.831 30.6728 102.549C32.6294 103.268 34.5573 103.149 35.5417 102.357" stroke="black" stroke-width="4" stroke-linecap="round"/>
<path d="M41.2998 89.1895C41.792 90.2735 43.12 91.0502 44.681 91.0502C46.2419 91.0502 47.57 90.2735 48.0621 89.1895" stroke="black" stroke-width="2" stroke-linecap="round"/>
</g>
</svg>
