<svg width="214" height="111" viewBox="0 0 214 111" fill="none" xmlns="http://www.w3.org/2000/svg">
<mask id="path-1-inside-1_4004_26519" fill="white">
<path d="M89.1562 8.95041V6.71281C89.1562 3.00544 97.1444 0 106.999 0C116.853 0 124.841 3.00544 124.841 6.71281V8.95041"/>
</mask>
<path d="M86.7063 8.95041C86.7063 10.3035 87.8032 11.4004 89.1562 11.4004C90.5093 11.4004 91.6062 10.3035 91.6062 8.95041H86.7063ZM122.391 8.95041C122.391 10.3035 123.488 11.4004 124.841 11.4004C126.194 11.4004 127.291 10.3035 127.291 8.95041H122.391ZM89.1562 8.95041H91.6062V6.71281H89.1562H86.7063V8.95041H89.1562ZM89.1562 6.71281H91.6062C91.6062 6.70603 91.6046 6.65267 91.671 6.53054C91.7438 6.39666 91.8948 6.19014 92.1867 5.93047C92.7856 5.39772 93.7917 4.80594 95.2448 4.25922C98.1333 3.17249 102.288 2.45 106.999 2.45V0V-2.45C101.855 -2.45 97.0886 -1.66977 93.5194 -0.326939C91.7437 0.341117 90.1368 1.19583 88.93 2.2693C87.7256 3.34067 86.7063 4.83691 86.7063 6.71281H89.1562ZM106.999 0V2.45C111.709 2.45 115.864 3.17249 118.753 4.25922C120.206 4.80594 121.212 5.39772 121.811 5.93047C122.103 6.19014 122.254 6.39666 122.327 6.53054C122.393 6.65267 122.391 6.70603 122.391 6.71281H124.841H127.291C127.291 4.83691 126.272 3.34067 125.068 2.2693C123.861 1.19583 122.254 0.341117 120.478 -0.326939C116.909 -1.66977 112.143 -2.45 106.999 -2.45V0ZM124.841 6.71281H122.391V8.95041H124.841H127.291V6.71281H124.841Z" fill="#1C1C1E" mask="url(#path-1-inside-1_4004_26519)"/>
<rect x="67" y="8.82001" width="79.625" height="47.285" rx="5.30639" fill="#C5F2C8"/>
<rect x="109.491" y="21.1585" width="8.68738" height="14.4833" rx="4.34369" fill="white" stroke="black" stroke-width="0.1225"/>
<rect x="93.2566" y="21.1585" width="8.68738" height="14.4833" rx="4.34369" fill="white" stroke="black" stroke-width="0.1225"/>
<rect x="111.047" y="30.3709" width="5.56413" height="5.33229" rx="2.66615" fill="black"/>
<rect x="103.164" y="39.6445" width="5.56413" height="5.33229" rx="2.66615" fill="black"/>
<rect x="94.8203" y="30.3709" width="5.56413" height="5.33229" rx="2.66615" fill="black"/>
<path d="M207.537 37C210.634 37 213.144 39.5105 213.145 42.6074V104.647C213.144 107.744 210.634 110.255 207.537 110.255H164.607C161.511 110.255 159 107.744 159 104.647V42.6074C159 39.5106 161.511 37.0001 164.607 37H207.537ZM177.497 42.6348C175.535 42.635 173.945 44.2257 173.945 46.1875C173.945 48.1493 175.535 49.74 177.497 49.7402H194.647C196.609 49.7402 198.2 48.1495 198.2 46.1875C198.2 44.2255 196.609 42.6348 194.647 42.6348H177.497Z" fill="#A5BBFF"/>
<line x1="199.818" y1="66.5781" x2="203.282" y2="63.1133" stroke="black" stroke-width="0.98"/>
<line x1="197.759" y1="65.4884" x2="199.83" y2="61.0475" stroke="black" stroke-width="0.98"/>
<line x1="195.035" y1="64.8808" x2="196.303" y2="60.1478" stroke="black" stroke-width="0.98"/>
<circle cx="200.656" cy="77.4246" r="6.125" fill="#698AF0"/>
<circle cx="195.508" cy="70.0746" r="5.19039" fill="black" stroke="white" stroke-width="1.86921"/>
<line y1="-0.49" x2="4.9" y2="-0.49" transform="matrix(-0.707107 -0.707107 -0.707107 0.707107 171.984 66.9246)" stroke="black" stroke-width="0.98"/>
<line y1="-0.49" x2="4.9" y2="-0.49" transform="matrix(-0.422618 -0.906308 -0.906308 0.422618 173.945 65.6955)" stroke="black" stroke-width="0.98"/>
<line y1="-0.49" x2="4.9" y2="-0.49" transform="matrix(-0.258819 -0.965926 -0.965926 0.258819 176.641 65.0076)" stroke="black" stroke-width="0.98"/>
<circle cx="6.125" cy="6.125" r="6.125" transform="matrix(-1 0 0 1 177.617 71.2996)" fill="#698AF0"/>
<circle cx="6.125" cy="6.125" r="5.19039" transform="matrix(-1 0 0 1 182.766 63.9496)" fill="black" stroke="white" stroke-width="1.86921"/>
<path d="M191.354 77.7726C191.354 79.9602 189.182 81.1907 186.501 81.1907C183.821 81.1907 181.648 79.6604 181.648 77.7726" stroke="black" stroke-width="0.98"/>
<mask id="path-21-inside-2_4004_26519" fill="white">
<path d="M74.8984 48.5072V45.6304C74.8984 40.864 78.748 37 83.4969 37C88.2458 37 92.0953 40.864 92.0953 45.6304V48.5072"/>
</mask>
<path d="M72.5739 48.5072C72.5739 49.791 73.6146 50.8317 74.8984 50.8317C76.1822 50.8317 77.2229 49.791 77.2229 48.5072H72.5739ZM89.7708 48.5072C89.7708 49.791 90.8116 50.8317 92.0953 50.8317C93.3791 50.8317 94.4199 49.791 94.4199 48.5072H89.7708ZM74.8984 48.5072H77.2229V45.6304H74.8984H72.5739V48.5072H74.8984ZM74.8984 45.6304H77.2229C77.2229 42.1396 80.0399 39.3245 83.4969 39.3245V37V34.6755C77.456 34.6755 72.5739 39.5883 72.5739 45.6304H74.8984ZM83.4969 37V39.3245C86.9539 39.3245 89.7708 42.1396 89.7708 45.6304H92.0953H94.4199C94.4199 39.5883 89.5378 34.6755 83.4969 34.6755V37ZM92.0953 45.6304H89.7708V48.5072H92.0953H94.4199V45.6304H92.0953Z" fill="#8AC2FF" mask="url(#path-21-inside-2_4004_26519)"/>
<rect x="57" y="48.5777" width="53.0138" height="62.1541" rx="6.97353" fill="#FFFF80"/>
<path d="M89.5316 87.4013C89.5316 90.1999 86.8785 91.774 83.6056 91.774C80.3328 91.774 77.6797 89.8163 77.6797 87.4013" stroke="#FFC248" stroke-width="2.32451"/>
<circle cx="70.3637" cy="71.5189" r="9.64672" fill="#ABE5FF" stroke="#55A6FF" stroke-width="2.32451"/>
<circle cx="96.6293" cy="71.5189" r="9.64672" fill="#ABE5FF" stroke="#55A6FF" stroke-width="2.32451"/>
<rect x="79.6631" y="70.5891" width="6.97353" height="2.09206" fill="#55A6FF" stroke="#55A6FF" stroke-width="0.232451"/>
<rect x="91.6328" y="69.7986" width="6.27618" height="2.32451" rx="1.16226" transform="rotate(-34 91.6328 69.7986)" fill="white"/>
<rect x="65.6016" y="69.7986" width="6.27618" height="2.32451" rx="1.16226" transform="rotate(-34 65.6016 69.7986)" fill="white"/>
<rect x="94.8906" y="73.2853" width="6.27618" height="2.32451" rx="1.16226" transform="rotate(-34 94.8906 73.2853)" fill="white"/>
<rect x="68.8516" y="73.2853" width="6.27618" height="2.32451" rx="1.16226" transform="rotate(-34 68.8516 73.2853)" fill="white"/>
<path d="M124.539 59.5257V55.7894C124.539 49.5988 129.453 44.5803 135.514 44.5803C141.575 44.5803 146.489 49.5988 146.489 55.7894V59.5257" stroke="#55A6FF" stroke-width="2.81866" stroke-miterlimit="3.8637" stroke-linecap="round"/>
<rect x="107" y="54.5877" width="56.9995" height="54.8072" rx="8.91428" fill="#FFCBE0"/>
<path d="M142.534 89.1416C142.534 92.7763 139.147 94.8208 134.97 94.8208C130.793 94.8208 127.406 92.2782 127.406 89.1416" stroke="black" stroke-width="2.19229"/>
<circle cx="145.205" cy="78.0764" r="6.73345" fill="black" stroke="#55A6FF" stroke-width="2.19229"/>
<circle cx="143.636" cy="75.2578" r="1.56592" fill="white"/>
<circle cx="141.916" cy="78.2331" r="0.78296" fill="white"/>
<circle cx="125.791" cy="78.0764" r="6.73345" fill="black" stroke="#55A6FF" stroke-width="2.19229"/>
<circle cx="124.222" cy="75.2578" r="1.56592" fill="white"/>
<circle cx="122.502" cy="78.2331" r="0.78296" fill="white"/>
<rect x="132.055" y="77.7634" width="5.63731" height="2.19229" fill="#55A6FF"/>
<rect x="152.102" y="77.7634" width="5.63731" height="2.19229" rx="1.09614" fill="#55A6FF"/>
<rect x="113.266" y="77.7634" width="5.63731" height="2.19229" rx="1.09614" fill="#55A6FF"/>
<path d="M51.626 45.8794C55.2494 45.8794 58.1865 48.8175 58.1865 52.4409V103.527C58.1864 107.15 55.2493 110.087 51.626 110.087H8.2793C4.65608 110.087 1.71889 107.15 1.71875 103.527V52.4409C1.71875 48.8176 4.65599 45.8795 8.2793 45.8794H51.626ZM20.4189 50.8188C18.6993 50.8188 17.3047 52.2134 17.3047 53.9331C17.3048 55.6527 18.6994 57.0464 20.4189 57.0464H39.4863C41.2059 57.0464 42.6004 55.6527 42.6006 53.9331C42.6006 52.2134 41.206 50.8188 39.4863 50.8188H20.4189Z" fill="#F78A8A"/>
<path d="M27.807 71.9632C27.807 73.2807 27.5475 74.5852 27.0433 75.8024C26.5392 77.0196 25.8002 78.1256 24.8686 79.0572C23.937 79.9888 22.831 80.7278 21.6138 81.2319C20.3966 81.7361 19.0921 81.9956 17.7746 81.9956C16.4571 81.9956 15.1525 81.7361 13.9354 81.2319C12.7182 80.7278 11.6122 79.9888 10.6806 79.0572C9.74902 78.1256 9.01003 77.0196 8.50586 75.8024C8.00168 74.5852 7.74219 73.2807 7.74219 71.9632L17.7746 71.9632H27.807Z" fill="white"/>
<circle cx="21.7883" cy="74.8295" r="2.8664" fill="black"/>
<path d="M50.4476 71.9632C50.4476 73.2807 50.1881 74.5852 49.684 75.8024C49.1798 77.0196 48.4408 78.1256 47.5092 79.0572C46.5776 79.9888 45.4716 80.7278 44.2545 81.2319C43.0373 81.7361 41.7327 81.9956 40.4152 81.9956C39.0977 81.9956 37.7932 81.7361 36.576 81.2319C35.3588 80.7278 34.2528 79.9888 33.3212 79.0572C32.3896 78.1256 31.6507 77.0196 31.1465 75.8024C30.6423 74.5852 30.3828 73.2807 30.3828 71.9632L40.4152 71.9632H50.4476Z" fill="white"/>
<circle cx="44.4289" cy="74.8295" r="2.8664" fill="black"/>
<rect x="8.21875" y="64.2242" width="40.9896" height="3.43968" rx="1.71984" fill="black"/>
<rect x="8.21875" y="87.7289" width="8.59921" height="3.43968" rx="1.71984" fill="black"/>
</svg>
