<svg width="303" height="35" viewBox="0 0 303 35" fill="none" xmlns="http://www.w3.org/2000/svg">
<g clip-path="url(#clip0_748_10518)">
<g filter="url(#filter0_d_748_10518)">
<path d="M18.2 13.6C18.2 15.2 18.5 16.7 19 18C19.5 19.3 20.2 20.5 21.1 21.6C22 22.6 23 23.4 24.3 24C25.5 24.6 26.8 25 28.3 25.1V27.2C26.5 27.1 24.9 26.7 23.4 26C21.9 25.3 20.6 24.3 19.5 23.2C18.4 22 17.5 20.6 16.9 19C16.3 17.4 16 15.6 16 13.7C16 11.8 16.3 10 16.9 8.4C17.5 6.8 18.4 5.4 19.5 4.2C20.6 3 21.9 2.1 23.4 1.4C24.9 0.7 26.6 0.3 28.3 0.2V2.2C26.9 2.3 25.6 2.7 24.3 3.3C23.1 3.9 22 4.7 21.1 5.7C20.2 6.7 19.5 7.9 19 9.3C18.5 10.7 18.2 12 18.2 13.6ZM36.9 5.9C36.1 4.7 35 3.8 33.6 3.1C32.2 2.4 30.8 2.1 29.2 2V0C31.3 0 33.1 0.5 34.7 1.3C36.3 2.1 37.6 3.3 38.7 4.7L36.9 5.9ZM38.8 22.5C37.6 24 36.2 25.1 34.7 25.9C33.1 26.7 31.3 27.2 29.2 27.2V25.1C30.8 25.1 32.2 24.8 33.6 24.1C34.9 23.4 36 22.5 36.9 21.3L38.8 22.5Z" fill="white"/>
<path d="M20.713 21.9166L20.7205 21.9257L20.7284 21.9345C21.6646 22.9747 22.7158 23.8183 24.0833 24.4507C25.2086 25.0124 26.424 25.408 27.8 25.558V26.662C26.2746 26.5222 24.9036 26.1499 23.6114 25.5469C22.1793 24.8786 20.9285 23.92 19.8612 22.8541C18.804 21.6989 17.9424 20.3558 17.3682 18.8244C16.792 17.2879 16.5 15.5484 16.5 13.7C16.5 11.8516 16.792 10.1121 17.3682 8.57556C17.9437 7.04067 18.808 5.69485 19.8686 4.53786C20.9179 3.39312 22.1617 2.52962 23.6114 1.85309C24.8939 1.2546 26.3361 0.882207 27.8 0.74034V1.74517C26.5017 1.89798 25.2879 2.29335 24.0905 2.84602L24.0834 2.84929L24.0764 2.85279C22.8273 3.47732 21.6751 4.3136 20.7284 5.36552C19.7804 6.41881 19.0487 7.67691 18.5291 9.13183C18.0153 10.5706 17.7 11.9285 17.7 13.6C17.7 15.2619 18.0115 16.8227 18.5333 18.1795C19.0528 19.5302 19.78 20.7763 20.713 21.9166ZM33.8236 24.5472L33.8304 24.5438L33.837 24.5402C35.0605 23.8815 36.1224 23.0479 37.0144 21.9636L38.0501 22.6177C36.9808 23.842 35.7654 24.7643 34.4705 25.4557C33.0638 26.1582 31.5004 26.6179 29.7 26.6901V25.5903C31.168 25.5321 32.4964 25.2108 33.8236 24.5472ZM37.0256 5.21535C36.2007 4.13264 35.1271 3.30453 33.8236 2.65279C32.49 1.98596 31.1608 1.66753 29.7 1.5365V0.509949C31.5029 0.582171 33.0682 1.04313 34.4764 1.74721C35.8341 2.42606 36.9747 3.41398 37.9652 4.58895L37.0256 5.21535Z" stroke="white"/>
</g>
<path d="M43.2002 7.7002H45.3002V26.7002H43.2002V7.7002ZM51.8002 7.2002C52.7002 7.2002 53.5002 7.3002 54.3002 7.6002C55.1002 7.9002 55.7002 8.2002 56.3002 8.7002C56.9002 9.2002 57.3002 9.7002 57.6002 10.4002C57.9002 11.1002 58.1002 11.8002 58.1002 12.6002V26.8002H56.0002V13.0002C55.9002 11.8002 55.5002 10.9002 54.7002 10.3002C53.9002 9.7002 52.8002 9.4002 51.4002 9.4002C50.6002 9.4002 49.7002 9.6002 48.7002 9.9002C47.7002 10.3002 46.9002 10.8002 46.3002 11.4002V8.8002C47.0002 8.4002 47.8002 8.0002 48.7002 7.7002C49.7002 7.4002 50.7002 7.2002 51.8002 7.2002Z" fill="white"/>
<path d="M70.8 27.2002C69.9 27.2002 69.1 27.0002 68.3 26.7002C67.5 26.4002 66.9 26.0002 66.3 25.5002C65.7 25.0002 65.3 24.4002 65 23.7002C64.7 23.0002 64.5 22.3002 64.5 21.5002V7.7002H66.5V21.0002C66.5 22.4002 66.9 23.4002 67.8 24.1002C68.6 24.8002 69.7 25.1002 71.1 25.1002C71.5 25.1002 71.9 25.0002 72.4 24.9002C72.9 24.8002 73.3 24.6002 73.8 24.3002C74.3 24.1002 74.7 23.8002 75.1 23.5002C75.5 23.2002 75.9 22.9002 76.2 22.6002V25.2002C75.6 25.6002 74.8 26.1002 73.8 26.6002C72.9 27.0002 71.9 27.2002 70.8 27.2002ZM79.3 26.7002H77.2V7.7002H79.3V26.7002Z" fill="white"/>
<path d="M94.1002 9.2001C93.0002 9.2001 92.1002 9.4001 91.2002 9.7001C90.3002 10.1001 89.6002 10.6001 89.0002 11.2001C88.4002 11.9001 87.9002 12.6001 87.6002 13.5001C87.3002 14.4001 87.0002 15.4001 86.9002 16.4001H84.7002C84.8002 15.1001 85.0002 13.9001 85.5002 12.7001C86.0002 11.6001 86.6002 10.6001 87.4002 9.8001C88.2002 9.0001 89.2002 8.3001 90.3002 7.8001C91.4002 7.3001 92.6002 7.1001 94.0002 7.1001C95.7002 7.1001 97.0002 7.4001 98.0002 8.0001C99.0002 8.6001 99.9002 9.4001 100.7 10.3001L99.2002 11.6001C98.5002 10.6001 97.8002 10.0001 96.9002 9.6001C96.1002 9.4001 95.1002 9.2001 94.1002 9.2001ZM94.0002 27.2001C92.6002 27.2001 91.3002 27.0001 90.2002 26.4001C89.1002 25.8001 88.1002 25.2001 87.3002 24.3001C86.5002 23.4001 85.9002 22.4001 85.4002 21.2001C85.0002 20.0001 84.7002 18.8001 84.7002 17.4001H86.9002C86.9002 18.5001 87.1002 19.5001 87.5002 20.5001C87.8002 21.4001 88.3002 22.3001 88.9002 22.9001C89.5002 23.5001 90.3002 24.1001 91.1002 24.5001C92.0002 24.9001 93.0002 25.1001 94.1002 25.1001C95.2002 25.1001 96.1002 24.9001 96.9002 24.5001C97.7002 24.1001 98.5002 23.4001 99.2002 22.5001L100.7 23.8001C99.9002 24.8001 99.0002 25.6001 98.0002 26.2001C97.0002 26.9001 95.6002 27.2001 94.0002 27.2001Z" fill="white"/>
<path d="M104.2 17.2002C104.2 15.9002 104.4 14.6002 104.8 13.4002C105.2 12.2002 105.8 11.2002 106.5 10.3002C107.2 9.4002 108.1 8.7002 109.2 8.1002C110.3 7.6002 111.5 7.3002 112.8 7.2002V9.1002C111.8 9.2002 110.9 9.4002 110.1 9.9002C109.3 10.4002 108.6 11.0002 108.1 11.7002C107.5 12.5002 107.1 13.3002 106.9 14.2002C106.6 15.1002 106.5 16.1002 106.5 17.1002C106.5 18.1002 106.6 19.1002 106.9 20.1002C107.2 21.1002 107.6 21.9002 108.1 22.6002C108.7 23.3002 109.3 24.0002 110.1 24.4002C110.9 24.9002 111.8 25.2002 112.8 25.2002V27.1002C111.5 27.0002 110.3 26.7002 109.2 26.2002C108.1 25.7002 107.2 24.9002 106.5 24.0002C105.8 23.1002 105.2 22.1002 104.8 20.9002C104.4 19.7002 104.2 18.5002 104.2 17.2002ZM122.5 17.2002C122.5 18.5002 122.3 19.8002 121.9 21.0002C121.5 22.2002 120.9 23.2002 120.2 24.1002C119.5 25.0002 118.6 25.7002 117.5 26.3002C116.4 26.9002 115.2 27.2002 113.9 27.2002V25.3002C115 25.2002 115.9 25.0002 116.7 24.5002C117.5 24.0002 118.2 23.4002 118.7 22.7002C119.3 22.0002 119.7 21.1002 119.9 20.1002C120.2 19.1002 120.3 18.1002 120.3 17.1002C120.3 16.1002 120.2 15.1002 119.9 14.1002C119.6 13.2002 119.2 12.3002 118.7 11.6002C118.1 10.9002 117.5 10.3002 116.7 9.8002C115.9 9.3002 115 9.1002 113.9 9.0002V7.2002C115.2 7.3002 116.4 7.5002 117.5 8.1002C118.6 8.7002 119.5 9.4002 120.2 10.3002C120.9 11.2002 121.5 12.2002 121.9 13.4002C122.3 14.6002 122.5 15.9002 122.5 17.2002Z" fill="white"/>
<path d="M127.8 7.7002H129.8V26.7002H127.8V7.7002ZM141 7.7002H143.8L130.8 20.1002V17.6002L141 7.7002ZM134 18.4002L135.5 17.1002L143.7 26.8002H141L134 18.4002Z" fill="white"/>
<path d="M155.4 26.6999V0.399902H157.7V26.6999H155.4ZM172.2 2.4999H158.7V0.499902H172.2V2.4999ZM173.2 0.399902H175.4V26.6999H173.2V0.399902Z" fill="white"/>
<path d="M180.8 17.2002C180.8 15.9002 181 14.6002 181.4 13.4002C181.8 12.2002 182.4 11.2002 183.1 10.3002C183.8 9.4002 184.7 8.7002 185.8 8.1002C186.9 7.6002 188.1 7.3002 189.4 7.2002V9.1002C188.4 9.2002 187.5 9.4002 186.7 9.9002C185.9 10.4002 185.2 11.0002 184.7 11.7002C184.1 12.5002 183.7 13.3002 183.5 14.2002C183.2 15.1002 183.1 16.1002 183.1 17.1002C183.1 18.1002 183.2 19.1002 183.5 20.1002C183.8 21.1002 184.2 21.9002 184.7 22.6002C185.3 23.3002 185.9 24.0002 186.7 24.4002C187.5 24.9002 188.4 25.2002 189.4 25.2002V27.1002C188.1 27.0002 186.9 26.7002 185.8 26.2002C184.7 25.7002 183.8 24.9002 183.1 24.0002C182.4 23.1002 181.8 22.1002 181.4 20.9002C181 19.7002 180.8 18.5002 180.8 17.2002ZM199.1 17.2002C199.1 18.5002 198.9 19.8002 198.5 21.0002C198.1 22.2002 197.5 23.2002 196.8 24.1002C196.1 25.0002 195.2 25.7002 194.1 26.3002C193 26.9002 191.8 27.2002 190.5 27.2002V25.3002C191.6 25.2002 192.5 25.0002 193.3 24.5002C194.1 24.0002 194.8 23.4002 195.3 22.7002C195.9 22.0002 196.3 21.1002 196.5 20.1002C196.8 19.1002 196.9 18.1002 196.9 17.1002C196.9 16.1002 196.8 15.1002 196.5 14.1002C196.2 13.2002 195.8 12.3002 195.3 11.6002C194.7 10.9002 194.1 10.3002 193.3 9.8002C192.5 9.3002 191.6 9.1002 190.5 9.0002V7.2002C191.8 7.3002 193 7.5002 194.1 8.1002C195.2 8.7002 196.1 9.4002 196.8 10.3002C197.5 11.2002 198.1 12.2002 198.5 13.4002C198.9 14.6002 199.1 15.9002 199.1 17.2002Z" fill="white"/>
<path d="M204.4 7.7002H206.4V26.7002H204.4V7.7002ZM217.6 7.7002H220.4L207.4 20.1002V17.6002L217.6 7.7002ZM210.6 18.4002L212.1 17.1002L220.3 26.8002H217.7L210.6 18.4002Z" fill="white"/>
<path d="M228.9 25.7001L221.4 7.7001H223.7L230 23.0001L228.9 25.7001ZM223.4 32.3001C223.6 32.4001 223.9 32.5001 224.2 32.5001C224.5 32.6001 224.8 32.6001 225.1 32.6001C225.7 32.6001 226.3 32.4001 226.7 32.1001C227.2 31.8001 227.6 31.2001 228 30.2001L237.5 7.6001H239.8L229.9 30.8001C228.9 33.2001 227.3 34.3001 225 34.3001C224.7 34.3001 224.3 34.3001 223.9 34.2001C223.5 34.1001 223.2 34.1001 222.9 34.0001L223.4 32.3001Z" fill="white"/>
<path d="M243.3 7.7002H245.4V26.7002H243.3V7.7002ZM251.8 7.2002C252.7 7.2002 253.5 7.3002 254.3 7.6002C255.1 7.9002 255.7 8.2002 256.3 8.7002C256.9 9.2002 257.3 9.7002 257.6 10.4002C257.9 11.1002 258.1 11.8002 258.1 12.6002V26.8002H256V13.0002C255.9 11.8002 255.5 10.9002 254.7 10.3002C253.9 9.7002 252.8 9.4002 251.4 9.4002C250.6 9.4002 249.7 9.6002 248.7 9.9002C247.7 10.3002 246.9 10.8002 246.3 11.4002V8.8002C246.9 8.4002 247.7 8.0002 248.7 7.7002C249.7 7.4002 250.7 7.2002 251.8 7.2002Z" fill="white"/>
<path d="M263.5 17.2002C263.5 15.9002 263.7 14.6002 264.1 13.4002C264.5 12.2002 265.1 11.2002 265.8 10.3002C266.5 9.4002 267.4 8.7002 268.5 8.1002C269.6 7.6002 270.8 7.3002 272.1 7.2002V9.1002C271.1 9.2002 270.2 9.4002 269.4 9.9002C268.6 10.4002 267.9 11.0002 267.4 11.7002C266.9 12.4002 266.4 13.3002 266.2 14.2002C265.9 15.1002 265.8 16.1002 265.8 17.1002C265.8 18.1002 265.9 19.1002 266.2 20.1002C266.5 21.1002 266.9 21.9002 267.4 22.6002C268 23.3002 268.6 24.0002 269.4 24.4002C270.2 24.9002 271.1 25.2002 272.1 25.2002V27.1002C270.8 27.0002 269.6 26.7002 268.5 26.2002C267.4 25.7002 266.5 24.9002 265.8 24.0002C265.1 23.1002 264.5 22.1002 264.1 20.9002C263.7 19.7002 263.5 18.5002 263.5 17.2002ZM281.8 17.2002C281.8 18.5002 281.6 19.8002 281.2 21.0002C280.8 22.2002 280.2 23.2002 279.5 24.1002C278.8 25.0002 277.9 25.7002 276.8 26.3002C275.7 26.9002 274.5 27.2002 273.2 27.2002V25.3002C274.3 25.2002 275.2 25.0002 276 24.5002C276.8 24.0002 277.5 23.4002 278 22.7002C278.6 22.0002 279 21.1002 279.2 20.1002C279.5 19.1002 279.6 18.1002 279.6 17.1002C279.6 16.1002 279.5 15.1002 279.2 14.1002C278.9 13.2002 278.5 12.3002 278 11.6002C277.4 10.9002 276.8 10.3002 276 9.8002C275.2 9.3002 274.3 9.1002 273.2 9.0002V7.2002C274.5 7.3002 275.7 7.5002 276.8 8.1002C277.9 8.6002 278.8 9.4002 279.5 10.3002C280.2 11.2002 280.8 12.2002 281.2 13.4002C281.6 14.6002 281.8 15.9002 281.8 17.2002Z" fill="white"/>
<path d="M287 7.7002H289V26.7002H287V7.7002ZM300.3 7.7002H303.1L290.1 20.1002V17.6002L300.3 7.7002ZM293.3 18.4002L294.8 17.1002L303 26.8002H300.4L293.3 18.4002Z" fill="white"/>
<path d="M12.225 2.94615L10.1973 2.09277L-0.00450394 26.3335L2.02324 27.1869L12.225 2.94615Z" fill="white"/>
</g>
<defs>
<filter id="filter0_d_748_10518" x="12" y="0" width="30.7998" height="35.2002" filterUnits="userSpaceOnUse" color-interpolation-filters="sRGB">
<feFlood flood-opacity="0" result="BackgroundImageFix"/>
<feColorMatrix in="SourceAlpha" type="matrix" values="0 0 0 0 0 0 0 0 0 0 0 0 0 0 0 0 0 0 127 0" result="hardAlpha"/>
<feOffset dy="4"/>
<feGaussianBlur stdDeviation="2"/>
<feComposite in2="hardAlpha" operator="out"/>
<feColorMatrix type="matrix" values="0 0 0 0 0 0 0 0 0 0 0 0 0 0 0 0 0 0 0.25 0"/>
<feBlend mode="normal" in2="BackgroundImageFix" result="effect1_dropShadow_748_10518"/>
<feBlend mode="normal" in="SourceGraphic" in2="effect1_dropShadow_748_10518" result="shape"/>
</filter>
<clipPath id="clip0_748_10518">
<rect width="303" height="34.5" fill="white"/>
</clipPath>
</defs>
</svg>
