<svg width="303" height="41" viewBox="0 0 303 41" fill="none" xmlns="http://www.w3.org/2000/svg">
<path d="M7.38907 16.0853L2.01123 32.202H0L5.37784 16.0853L10.6027 0.537109H12.6357L7.38907 16.0853Z" fill="white"/>
<path d="M20.5582 8.78135C20.5582 9.58318 20.7331 10.2684 21.0829 10.8369C21.4472 11.4055 21.9428 11.8939 22.5695 12.3021C23.1961 12.6957 23.9176 13.0383 24.7337 13.3299C25.5644 13.6069 26.4389 13.8839 27.357 14.1609V17.0256C26.1911 16.6903 25.0398 16.3404 23.903 15.9759C22.7808 15.5969 21.7606 15.1085 20.8424 14.5108C19.9388 13.9131 19.2101 13.1695 18.6563 12.2802C18.1025 11.3764 17.8256 10.2538 17.8256 8.91256C17.8256 7.71711 18.0733 6.63829 18.5689 5.6761C19.0644 4.69932 19.7421 3.86834 20.602 3.18314C21.4764 2.49794 22.4893 1.96582 23.6407 1.58677C24.8066 1.19315 26.0454 0.97447 27.357 0.930734V3.27061C26.366 3.29977 25.4624 3.45285 24.6463 3.72984C23.8301 3.99226 23.116 4.3713 22.5039 4.86698C21.8918 5.34807 21.4108 5.92393 21.061 6.59455C20.7258 7.25059 20.5582 7.97953 20.5582 8.78135ZM36.1015 7.03191C35.1105 5.86562 33.9664 4.97632 32.6693 4.36401C31.3722 3.75171 29.9804 3.40182 28.4938 3.31435V0.996338C30.5196 1.08381 32.305 1.48472 33.8498 2.19908C35.4092 2.91343 36.7282 3.8975 37.8067 5.15126L36.1015 7.03191ZM38.4625 23.3892C38.4625 24.3514 38.2949 25.3136 37.9597 26.2758C37.6391 27.238 37.0926 28.1273 36.3201 28.9437C35.5477 29.7455 34.5202 30.4161 33.2377 30.9555C31.9552 31.4804 30.3739 31.7792 28.4938 31.8521V29.5122C29.8929 29.4831 31.0589 29.2717 31.9916 28.8781C32.9389 28.4699 33.6895 27.9815 34.2433 27.4129C34.7971 26.8443 35.1906 26.2175 35.4238 25.5323C35.657 24.8471 35.7736 24.191 35.7736 23.5641C35.7736 22.6019 35.5696 21.7855 35.1615 21.1149C34.768 20.4443 34.236 19.883 33.5656 19.4311C32.8952 18.9646 32.1155 18.5636 31.2265 18.2283C30.352 17.893 29.4411 17.5942 28.4938 17.3318V14.467C29.6889 14.8024 30.8767 15.1814 32.0572 15.6042C33.2523 16.0124 34.3162 16.5372 35.2489 17.1787C36.1962 17.8201 36.9687 18.6438 37.5662 19.6498C38.1637 20.6557 38.4625 21.9022 38.4625 23.3892ZM18.5907 25.1605C19.0425 25.6999 19.5672 26.2175 20.1647 26.7131C20.7623 27.2088 21.4327 27.6607 22.176 28.069C22.9192 28.4626 23.7208 28.7979 24.5807 29.0749C25.4551 29.3373 26.3806 29.4831 27.357 29.5122V31.8521C24.996 31.7938 22.9411 31.3273 21.1922 30.4526C19.4579 29.5633 18.0369 28.4407 16.9293 27.0849L18.5907 25.1605Z" fill="white"/>
<path d="M46.7566 1.4337H49.0739V31.3054H46.7566V1.4337ZM61.3599 16.5664C61.3599 15.5167 61.2287 14.6493 60.9664 13.9641C60.7186 13.2789 60.3616 12.7395 59.8952 12.3458C59.4288 11.9376 58.875 11.6534 58.2337 11.493C57.5925 11.318 56.8856 11.2306 56.1132 11.2306C55.0056 11.2306 53.9344 11.4711 52.8996 11.9522C51.8794 12.4333 50.9831 13.0165 50.2107 13.7017V11.0556C50.7791 10.662 51.311 10.3413 51.8066 10.0934C52.3167 9.8456 52.834 9.64879 53.3587 9.503C53.8834 9.34263 54.4299 9.226 54.9983 9.15311C55.5667 9.08022 56.1934 9.04377 56.8784 9.04377C59.0936 9.04377 60.7769 9.60505 61.9283 10.7276C63.0942 11.8502 63.6772 13.6361 63.6772 16.0853V31.3054H61.3599V16.5664Z" fill="white"/>
<path d="M71.9713 20.4589C71.9713 18.9427 72.1899 17.514 72.6271 16.1727C73.0789 14.8315 73.7202 13.6506 74.5509 12.6301C75.3962 11.6096 76.4237 10.7932 77.6333 10.1809C78.843 9.5686 80.1911 9.21871 81.6777 9.13124V11.2962C80.5117 11.3836 79.477 11.6898 78.5734 12.2146C77.6843 12.7249 76.9265 13.4101 76.2998 14.2702C75.6731 15.1158 75.1995 16.0707 74.8788 17.1349C74.5728 18.1992 74.4197 19.3072 74.4197 20.4589C74.4197 21.6252 74.5728 22.7477 74.8788 23.8266C75.1995 24.9054 75.6731 25.8676 76.2998 26.7131C76.9265 27.5587 77.6843 28.2512 78.5734 28.7906C79.477 29.33 80.5117 29.6434 81.6777 29.7309V31.8521C80.1911 31.7646 78.843 31.4148 77.6333 30.8025C76.4237 30.1756 75.3962 29.3592 74.5509 28.3532C73.7202 27.3327 73.0789 26.1446 72.6271 24.7887C72.1899 23.4184 71.9713 21.9751 71.9713 20.4589ZM92.7394 20.4589C92.7394 21.9751 92.5062 23.4184 92.0398 24.7887C91.5735 26.1446 90.9176 27.3327 90.0723 28.3532C89.227 29.3592 88.1996 30.1756 86.9899 30.8025C85.7803 31.4293 84.4103 31.7792 82.88 31.8521V29.7309C84.0751 29.6726 85.1244 29.3737 86.028 28.8343C86.9462 28.2949 87.7186 27.6024 88.3453 26.7569C88.972 25.9113 89.4384 24.9418 89.7444 23.8484C90.065 22.755 90.2254 21.6252 90.2254 20.4589C90.2254 19.2926 90.065 18.1773 89.7444 17.1131C89.4384 16.0342 88.972 15.0793 88.3453 14.2484C87.7186 13.4028 86.9462 12.7176 86.028 12.1928C85.1244 11.6534 84.0751 11.3326 82.88 11.2306V9.13124C84.3957 9.18956 85.7584 9.52487 86.968 10.1372C88.1923 10.7495 89.227 11.5659 90.0723 12.5864C90.9176 13.6069 91.5735 14.7951 92.0398 16.1509C92.5062 17.5067 92.7394 18.9427 92.7394 20.4589Z" fill="white"/>
<path d="M110.434 29.6872C111.629 29.6872 112.693 29.4612 113.626 29.0093C114.573 28.5428 115.374 27.894 116.03 27.063C116.686 26.2175 117.174 25.2334 117.495 24.1108C117.83 22.9883 117.998 21.771 117.998 20.4589C117.998 19.1468 117.845 17.9441 117.539 16.8507C117.247 15.7427 116.803 14.7878 116.205 13.9859C115.608 13.1695 114.85 12.5354 113.932 12.0834C113.028 11.6169 111.979 11.3836 110.784 11.3836C110.186 11.3836 109.596 11.4711 109.013 11.6461C108.444 11.821 107.876 12.047 107.308 12.324C106.739 12.5864 106.207 12.8925 105.712 13.2424C105.216 13.5777 104.794 13.9276 104.444 14.2921V11.6898C105.216 10.9171 106.149 10.2975 107.242 9.83102C108.35 9.3645 109.545 9.13124 110.827 9.13124C112.256 9.13124 113.567 9.39366 114.762 9.91849C115.972 10.4433 116.999 11.2014 117.845 12.1928C118.69 13.1695 119.346 14.365 119.812 15.7791C120.279 17.1787 120.512 18.7386 120.512 20.4589C120.512 22.1937 120.279 23.7682 119.812 25.1824C119.346 26.5819 118.69 27.7774 117.845 28.7687C116.999 29.7455 115.979 30.5036 114.784 31.043C113.589 31.5824 112.27 31.8521 110.827 31.8521C109.574 31.8521 108.408 31.7063 107.33 31.4148C106.266 31.1378 105.304 30.5765 104.444 29.7309V27.0849C105.187 27.8284 106.076 28.448 107.111 28.9437C108.16 29.4393 109.268 29.6872 110.434 29.6872ZM100.99 39.5497V9.67794H103.307V39.5497H100.99Z" fill="white"/>
<path d="M138.075 29.6872C139.27 29.6872 140.334 29.4612 141.267 29.0093C142.214 28.5428 143.016 27.894 143.672 27.063C144.327 26.2175 144.816 25.2334 145.136 24.1108C145.471 22.9883 145.639 21.771 145.639 20.4589C145.639 19.1468 145.486 17.9441 145.18 16.8507C144.888 15.7427 144.444 14.7878 143.846 13.9859C143.249 13.1695 142.491 12.5354 141.573 12.0834C140.669 11.6169 139.62 11.3836 138.425 11.3836C137.827 11.3836 137.237 11.4711 136.654 11.6461C136.086 11.821 135.517 12.047 134.949 12.324C134.381 12.5864 133.849 12.8925 133.353 13.2424C132.858 13.5777 132.435 13.9276 132.085 14.2921V11.6898C132.858 10.9171 133.79 10.2975 134.883 9.83102C135.991 9.3645 137.186 9.13124 138.469 9.13124C139.897 9.13124 141.208 9.39366 142.404 9.91849C143.613 10.4433 144.641 11.2014 145.486 12.1928C146.331 13.1695 146.987 14.365 147.454 15.7791C147.92 17.1787 148.153 18.7386 148.153 20.4589C148.153 22.1937 147.92 23.7682 147.454 25.1824C146.987 26.5819 146.331 27.7774 145.486 28.7687C144.641 29.7455 143.621 30.5036 142.425 31.043C141.23 31.5824 139.911 31.8521 138.469 31.8521C137.215 31.8521 136.049 31.7063 134.971 31.4148C133.907 31.1378 132.945 30.5765 132.085 29.7309V27.0849C132.828 27.8284 133.717 28.448 134.752 28.9437C135.802 29.4393 136.909 29.6872 138.075 29.6872ZM128.631 39.5497V9.67794H130.948V39.5497H128.631Z" fill="white"/>
<path d="M158.59 6.26653H156.272V2.72391H158.59V6.26653ZM158.59 9.67794V31.3054H156.272V9.67794H158.59Z" fill="white"/>
<path d="M177.836 9.13124C178.827 9.13124 179.76 9.27703 180.634 9.5686C181.523 9.8456 182.289 10.2465 182.93 10.7713C183.571 11.2962 184.074 11.9303 184.438 12.6739C184.817 13.4174 185.007 14.2411 185.007 15.1449V31.3054H182.58V15.7135C182.522 14.3431 182.033 13.3226 181.115 12.652C180.212 11.9814 178.973 11.6461 177.399 11.6461C176.51 11.6461 175.504 11.8575 174.382 12.2802C173.26 12.6884 172.342 13.2351 171.628 13.9203V10.9682C172.342 10.4579 173.238 10.0278 174.316 9.67794C175.41 9.31348 176.583 9.13124 177.836 9.13124ZM168.086 9.67794H170.491V31.3054H168.086V9.67794Z" fill="white"/>
<path d="M203.313 29.556C203.882 29.556 204.443 29.4539 204.996 29.2498C205.55 29.0311 206.089 28.7542 206.614 28.4188C207.139 28.069 207.627 27.6753 208.079 27.238C208.545 26.786 208.961 26.3341 209.325 25.8821V29.1624C208.523 29.935 207.576 30.5765 206.483 31.0867C205.39 31.597 204.202 31.8521 202.92 31.8521C201.491 31.8521 200.187 31.5824 199.006 31.043C197.826 30.5036 196.806 29.7455 195.946 28.7687C195.101 27.7774 194.445 26.5819 193.978 25.1824C193.527 23.7682 193.301 22.1937 193.301 20.4589C193.301 18.7532 193.527 17.2005 193.978 15.801C194.445 14.4014 195.101 13.2133 195.946 12.2365C196.806 11.2452 197.826 10.4798 199.006 9.94036C200.187 9.40095 201.491 9.13124 202.92 9.13124C205.456 9.13124 207.591 9.72897 209.325 10.9244V13.7891C208.553 13.0456 207.612 12.4333 206.505 11.9522C205.397 11.4711 204.26 11.2306 203.095 11.2306C201.899 11.2306 200.843 11.4638 199.925 11.9304C199.021 12.3969 198.256 13.0529 197.629 13.8985C197.003 14.7295 196.529 15.7062 196.208 16.8288C195.902 17.9368 195.749 19.1468 195.749 20.4589C195.749 21.771 195.917 22.981 196.252 24.089C196.602 25.197 197.097 26.1591 197.739 26.9755C198.38 27.7774 199.167 28.4116 200.1 28.8781C201.047 29.33 202.118 29.556 203.313 29.556ZM203.095 40.0745C202.176 40.0745 201.331 40.0308 200.559 39.9433C199.801 39.8558 199.079 39.6809 198.394 39.4185C197.709 39.1706 197.054 38.8353 196.427 38.4125C195.8 38.0043 195.173 37.4722 194.547 36.8162L195.88 34.9355C196.842 36.0726 197.943 36.8453 199.181 37.2535C200.42 37.6763 201.725 37.8877 203.095 37.8877C204.086 37.8877 205.018 37.7565 205.893 37.4941C206.782 37.2462 207.561 36.8526 208.232 36.3132C208.902 35.7884 209.434 35.0959 209.828 34.2357C210.236 33.3902 210.44 32.3551 210.44 31.1305V9.67794H212.823V31.1305C212.823 32.7779 212.56 34.1628 212.036 35.2854C211.511 36.4225 210.804 37.3483 209.915 38.0626C209.041 38.777 208.013 39.2872 206.833 39.5934C205.652 39.9141 204.406 40.0745 203.095 40.0745Z" fill="white"/>
<path d="M235.554 1.4337H238.155V31.3054H235.554V1.4337ZM252.628 28.9874V31.3054H239.27V28.9874H252.628Z" fill="white"/>
<path d="M262.343 6.26653H260.025V2.72391H262.343V6.26653ZM262.343 9.67794V31.3054H260.025V9.67794H262.343Z" fill="white"/>
<path d="M286.377 25.4885C286.377 26.3195 286.216 27.114 285.896 27.8721C285.59 28.6157 285.123 29.2717 284.497 29.8403C283.87 30.3943 283.083 30.8535 282.136 31.2179C281.203 31.5678 280.11 31.7792 278.857 31.8521V29.8621C280.503 29.7747 281.786 29.3227 282.704 28.5063C283.637 27.6899 284.103 26.684 284.103 25.4885C284.103 24.4972 283.768 23.7318 283.098 23.1924C282.427 22.653 281.582 22.2229 280.562 21.9022C279.556 21.5669 278.463 21.2753 277.283 21.0274C276.102 20.7796 275.002 20.4297 273.981 19.9778C272.976 19.5258 272.131 18.9354 271.446 18.2065C270.775 17.4775 270.44 16.457 270.44 15.1449C270.44 14.3431 270.6 13.585 270.921 12.8707C271.256 12.1417 271.73 11.5076 272.342 10.9682C272.954 10.4287 273.712 9.99867 274.615 9.67794C275.534 9.34263 276.576 9.1604 277.742 9.13124V11.0994C276.153 11.1577 274.929 11.5659 274.069 12.324C273.209 13.0675 272.779 13.9787 272.779 15.0575C272.779 15.9468 273.114 16.632 273.785 17.1131C274.455 17.5942 275.293 17.9951 276.299 18.3158C277.319 18.622 278.412 18.9062 279.578 19.1687C280.744 19.4311 281.83 19.8028 282.835 20.2839C283.855 20.765 284.701 21.4138 285.371 22.2302C286.042 23.032 286.377 24.1181 286.377 25.4885ZM284.606 13.9641C284.008 13.1914 283.214 12.5572 282.223 12.0616C281.232 11.5513 280.11 11.2452 278.857 11.1431V9.17498C280.533 9.26245 281.939 9.60505 283.076 10.2028C284.213 10.8005 285.153 11.5076 285.896 12.324L284.606 13.9641ZM271.336 26.6913C271.992 27.5223 272.874 28.2366 273.981 28.8343C275.089 29.4321 276.342 29.7747 277.742 29.8621V31.8521C276.124 31.7938 274.674 31.4877 273.391 30.9337C272.123 30.3797 270.979 29.5341 269.959 28.397L271.336 26.6913Z" fill="white"/>
<path d="M295.064 9.67794V3.75171H297.447V9.67794H301.841V11.7335H291.501V9.67794H295.064ZM299.327 31.8521C297.899 31.8521 296.828 31.4439 296.114 30.6275C295.414 29.7965 295.064 28.6375 295.064 27.1505V12.8488H297.447V26.7787C297.447 27.6389 297.622 28.3459 297.972 28.8999C298.336 29.4539 298.905 29.7309 299.677 29.7309C300.187 29.7309 300.661 29.6289 301.098 29.4248C301.535 29.2207 301.87 28.9801 302.104 28.7031L303 30.4963C302.577 30.9191 302.082 31.2471 301.513 31.4804C300.945 31.7282 300.216 31.8521 299.327 31.8521Z" fill="white"/>
</svg>
