<svg width="303" height="40" viewBox="0 0 303 40" fill="none" xmlns="http://www.w3.org/2000/svg">
<path d="M7.38907 15.5482L2.01123 31.6649H0L5.37784 15.5482L10.6027 0H12.6357L7.38907 15.5482Z" fill="black"/>
<path d="M20.5582 8.24425C20.5582 9.04607 20.7331 9.73127 21.0829 10.2998C21.4472 10.8684 21.9428 11.3568 22.5695 11.765C23.1961 12.1586 23.9176 12.5012 24.7337 12.7928C25.5644 13.0698 26.4389 13.3468 27.357 13.6238V16.4885C26.1911 16.1532 25.0398 15.8033 23.903 15.4388C22.7808 15.0598 21.7606 14.5714 20.8424 13.9737C19.9388 13.3759 19.2101 12.6324 18.6563 11.7431C18.1025 10.8393 17.8256 9.71669 17.8256 8.37545C17.8256 7.18 18.0733 6.10118 18.5689 5.13899C19.0644 4.16221 19.7421 3.33123 20.602 2.64603C21.4764 1.96083 22.4893 1.42871 23.6407 1.04967C24.8066 0.656041 26.0454 0.43736 27.357 0.393624V2.7335C26.366 2.76266 25.4624 2.91574 24.6463 3.19273C23.8301 3.45515 23.116 3.83419 22.5039 4.32987C21.8918 4.81097 21.4108 5.38682 21.061 6.05744C20.7258 6.71348 20.5582 7.44242 20.5582 8.24425ZM36.1015 6.4948C35.1105 5.32851 33.9664 4.43921 32.6693 3.8269C31.3722 3.2146 29.9804 2.86471 28.4938 2.77724V0.459229C30.5196 0.546701 32.305 0.947614 33.8498 1.66197C35.4092 2.37633 36.7282 3.36039 37.8067 4.61415L36.1015 6.4948ZM38.4625 22.8521C38.4625 23.8143 38.2949 24.7765 37.9597 25.7387C37.6391 26.7009 37.0926 27.5902 36.3201 28.4066C35.5477 29.2084 34.5202 29.879 33.2377 30.4184C31.9552 30.9433 30.3739 31.2421 28.4938 31.315V28.9751C29.8929 28.946 31.0589 28.7346 31.9916 28.341C32.9389 27.9328 33.6895 27.4444 34.2433 26.8758C34.7971 26.3072 35.1906 25.6803 35.4238 24.9952C35.657 24.31 35.7736 23.6539 35.7736 23.027C35.7736 22.0648 35.5696 21.2484 35.1615 20.5778C34.768 19.9072 34.236 19.3459 33.5656 18.894C32.8952 18.4275 32.1155 18.0265 31.2265 17.6912C30.352 17.3559 29.4411 17.0571 28.4938 16.7946V13.9299C29.6889 14.2652 30.8767 14.6443 32.0572 15.0671C33.2523 15.4753 34.3162 16.0001 35.2489 16.6416C36.1962 17.283 36.9687 18.1067 37.5662 19.1127C38.1637 20.1186 38.4625 21.3651 38.4625 22.8521ZM18.5907 24.6234C19.0425 25.1628 19.5672 25.6803 20.1647 26.176C20.7623 26.6717 21.4327 27.1236 22.176 27.5318C22.9192 27.9255 23.7208 28.2608 24.5807 28.5378C25.4551 28.8002 26.3806 28.946 27.357 28.9751V31.315C24.996 31.2567 22.9411 30.7902 21.1922 29.9155C19.4579 29.0262 18.0369 27.9036 16.9293 26.5478L18.5907 24.6234Z" fill="black"/>
<path d="M46.7566 0.896589H49.0739V30.7683H46.7566V0.896589ZM61.3599 16.0293C61.3599 14.9796 61.2287 14.1122 60.9664 13.427C60.7186 12.7418 60.3616 12.2024 59.8952 11.8087C59.4288 11.4005 58.875 11.1162 58.2337 10.9559C57.5925 10.7809 56.8856 10.6935 56.1132 10.6935C55.0056 10.6935 53.9344 10.934 52.8996 11.4151C51.8794 11.8962 50.9831 12.4794 50.2107 13.1646V10.5185C50.7791 10.1249 51.311 9.80416 51.8066 9.55633C52.3167 9.30849 52.834 9.11168 53.3587 8.96589C53.8834 8.80552 54.4299 8.68889 54.9983 8.616C55.5667 8.54311 56.1934 8.50666 56.8784 8.50666C59.0936 8.50666 60.7769 9.06794 61.9283 10.1905C63.0942 11.3131 63.6772 13.0989 63.6772 15.5482V30.7683H61.3599V16.0293Z" fill="black"/>
<path d="M71.9713 19.9218C71.9713 18.4056 72.1899 16.9769 72.6271 15.6356C73.0789 14.2944 73.7202 13.1135 74.5509 12.093C75.3962 11.0725 76.4237 10.2561 77.6333 9.6438C78.843 9.03149 80.1911 8.68161 81.6777 8.59413V10.7591C80.5117 10.8465 79.477 11.1527 78.5734 11.6775C77.6843 12.1878 76.9265 12.873 76.2998 13.7331C75.6731 14.5787 75.1995 15.5336 74.8788 16.5978C74.5728 17.6621 74.4197 18.7701 74.4197 19.9218C74.4197 21.0881 74.5728 22.2106 74.8788 23.2894C75.1995 24.3683 75.6731 25.3305 76.2998 26.176C76.9265 27.0216 77.6843 27.7141 78.5734 28.2535C79.477 28.7929 80.5117 29.1063 81.6777 29.1938V31.315C80.1911 31.2275 78.843 30.8776 77.6333 30.2653C76.4237 29.6385 75.3962 28.8221 74.5509 27.8161C73.7202 26.7956 73.0789 25.6075 72.6271 24.2516C72.1899 22.8812 71.9713 21.438 71.9713 19.9218ZM92.7394 19.9218C92.7394 21.438 92.5062 22.8812 92.0398 24.2516C91.5735 25.6075 90.9176 26.7956 90.0723 27.8161C89.227 28.8221 88.1996 29.6385 86.9899 30.2653C85.7803 30.8922 84.4103 31.2421 82.88 31.315V29.1938C84.0751 29.1355 85.1244 28.8366 86.028 28.2972C86.9462 27.7578 87.7186 27.0653 88.3453 26.2198C88.972 25.3742 89.4384 24.4047 89.7444 23.3113C90.065 22.2179 90.2254 21.0881 90.2254 19.9218C90.2254 18.7555 90.065 17.6402 89.7444 16.576C89.4384 15.4971 88.972 14.5422 88.3453 13.7113C87.7186 12.8657 86.9462 12.1805 86.028 11.6557C85.1244 11.1162 84.0751 10.7955 82.88 10.6935V8.59413C84.3957 8.65245 85.7584 8.98776 86.968 9.60006C88.1923 10.2124 89.227 11.0288 90.0723 12.0493C90.9176 13.0698 91.5735 14.258 92.0398 15.6138C92.5062 16.9696 92.7394 18.4056 92.7394 19.9218Z" fill="black"/>
<path d="M110.434 29.1501C111.629 29.1501 112.693 28.9241 113.626 28.4722C114.573 28.0056 115.374 27.3569 116.03 26.5259C116.686 25.6803 117.174 24.6963 117.495 23.5737C117.83 22.4512 117.998 21.2339 117.998 19.9218C117.998 18.6097 117.845 17.4069 117.539 16.3135C117.247 15.2056 116.803 14.2507 116.205 13.4488C115.608 12.6324 114.85 11.9983 113.932 11.5463C113.028 11.0798 111.979 10.8465 110.784 10.8465C110.186 10.8465 109.596 10.934 109.013 11.109C108.444 11.2839 107.876 11.5099 107.308 11.7869C106.739 12.0493 106.207 12.3554 105.712 12.7053C105.216 13.0406 104.794 13.3905 104.444 13.755V11.1527C105.216 10.38 106.149 9.76043 107.242 9.29391C108.35 8.82739 109.545 8.59413 110.827 8.59413C112.256 8.59413 113.567 8.85655 114.762 9.38138C115.972 9.90621 116.999 10.6643 117.845 11.6557C118.69 12.6324 119.346 13.8279 119.812 15.242C120.279 16.6416 120.512 18.2015 120.512 19.9218C120.512 21.6566 120.279 23.2311 119.812 24.6453C119.346 26.0448 118.69 27.2403 117.845 28.2316C116.999 29.2084 115.979 29.9665 114.784 30.5059C113.589 31.0453 112.27 31.315 110.827 31.315C109.574 31.315 108.408 31.1692 107.33 30.8776C106.266 30.6007 105.304 30.0394 104.444 29.1938V26.5478C105.187 27.2913 106.076 27.9109 107.111 28.4066C108.16 28.9022 109.268 29.1501 110.434 29.1501ZM100.99 39.0126V9.14083H103.307V39.0126H100.99Z" fill="black"/>
<path d="M138.075 29.1501C139.27 29.1501 140.334 28.9241 141.267 28.4722C142.214 28.0056 143.016 27.3569 143.672 26.5259C144.327 25.6803 144.816 24.6963 145.136 23.5737C145.471 22.4512 145.639 21.2339 145.639 19.9218C145.639 18.6097 145.486 17.4069 145.18 16.3135C144.888 15.2056 144.444 14.2507 143.846 13.4488C143.249 12.6324 142.491 11.9983 141.573 11.5463C140.669 11.0798 139.62 10.8465 138.425 10.8465C137.827 10.8465 137.237 10.934 136.654 11.109C136.086 11.2839 135.517 11.5099 134.949 11.7869C134.381 12.0493 133.849 12.3554 133.353 12.7053C132.858 13.0406 132.435 13.3905 132.085 13.755V11.1527C132.858 10.38 133.79 9.76043 134.883 9.29391C135.991 8.82739 137.186 8.59413 138.469 8.59413C139.897 8.59413 141.208 8.85655 142.404 9.38138C143.613 9.90621 144.641 10.6643 145.486 11.6557C146.331 12.6324 146.987 13.8279 147.454 15.242C147.92 16.6416 148.153 18.2015 148.153 19.9218C148.153 21.6566 147.92 23.2311 147.454 24.6453C146.987 26.0448 146.331 27.2403 145.486 28.2316C144.641 29.2084 143.621 29.9665 142.425 30.5059C141.23 31.0453 139.911 31.315 138.469 31.315C137.215 31.315 136.049 31.1692 134.971 30.8776C133.907 30.6007 132.945 30.0394 132.085 29.1938V26.5478C132.828 27.2913 133.717 27.9109 134.752 28.4066C135.801 28.9022 136.909 29.1501 138.075 29.1501ZM128.631 39.0126V9.14083H130.948V39.0126H128.631Z" fill="black"/>
<path d="M158.59 5.72942H156.272V2.1868H158.59V5.72942ZM158.59 9.14083V30.7683H156.272V9.14083H158.59Z" fill="black"/>
<path d="M177.836 8.59413C178.827 8.59413 179.76 8.73992 180.634 9.03149C181.523 9.30849 182.289 9.7094 182.93 10.2342C183.571 10.7591 184.074 11.3932 184.438 12.1368C184.817 12.8803 185.007 13.704 185.007 14.6078V30.7683H182.58V15.1764C182.522 13.806 182.033 12.7855 181.115 12.1149C180.212 11.4443 178.973 11.109 177.399 11.109C176.51 11.109 175.504 11.3203 174.382 11.7431C173.26 12.1513 172.342 12.698 171.628 13.3832V10.431C172.342 9.92079 173.238 9.49072 174.316 9.14083C175.41 8.77637 176.583 8.59413 177.836 8.59413ZM168.086 9.14083H170.491V30.7683H168.086V9.14083Z" fill="black"/>
<path d="M203.313 29.0189C203.882 29.0189 204.443 28.9168 204.996 28.7127C205.55 28.494 206.089 28.217 206.614 27.8817C207.139 27.5318 207.627 27.1382 208.079 26.7009C208.545 26.2489 208.961 25.797 209.325 25.345V28.6252C208.523 29.3979 207.576 30.0394 206.483 30.5496C205.39 31.0599 204.202 31.315 202.92 31.315C201.491 31.315 200.187 31.0453 199.006 30.5059C197.826 29.9665 196.806 29.2084 195.946 28.2316C195.101 27.2403 194.445 26.0448 193.978 24.6453C193.527 23.2311 193.301 21.6566 193.301 19.9218C193.301 18.2161 193.527 16.6634 193.978 15.2639C194.445 13.8643 195.101 12.6762 195.946 11.6994C196.806 10.708 197.826 9.94266 199.006 9.40325C200.187 8.86384 201.491 8.59413 202.92 8.59413C205.456 8.59413 207.591 9.19186 209.325 10.3873V13.252C208.553 12.5085 207.612 11.8962 206.505 11.4151C205.397 10.934 204.26 10.6935 203.095 10.6935C201.899 10.6935 200.843 10.9267 199.925 11.3932C199.021 11.8598 198.256 12.5158 197.629 13.3614C197.003 14.1923 196.529 15.1691 196.208 16.2917C195.902 17.3997 195.749 18.6097 195.749 19.9218C195.749 21.2339 195.917 22.4439 196.252 23.5519C196.602 24.6598 197.097 25.622 197.739 26.4384C198.38 27.2403 199.167 27.8744 200.1 28.341C201.047 28.7929 202.118 29.0189 203.313 29.0189ZM203.095 39.5374C202.176 39.5374 201.331 39.4936 200.559 39.4062C199.801 39.3187 199.079 39.1438 198.394 38.8813C197.709 38.6335 197.054 38.2982 196.427 37.8754C195.8 37.4672 195.173 36.9351 194.547 36.2791L195.88 34.3984C196.842 35.5355 197.943 36.3082 199.181 36.7164C200.42 37.1392 201.725 37.3506 203.095 37.3506C204.086 37.3506 205.018 37.2194 205.893 36.957C206.782 36.7091 207.561 36.3155 208.232 35.7761C208.902 35.2513 209.434 34.5588 209.828 33.6986C210.236 32.8531 210.44 31.818 210.44 30.5934V9.14083H212.823V30.5934C212.823 32.2408 212.56 33.6257 212.036 34.7483C211.511 35.8854 210.804 36.8112 209.915 37.5255C209.041 38.2399 208.013 38.7501 206.833 39.0563C205.652 39.377 204.406 39.5374 203.095 39.5374Z" fill="black"/>
<path d="M235.554 0.896589H238.155V30.7683H235.554V0.896589ZM252.628 28.4503V30.7683H239.27V28.4503H252.628Z" fill="black"/>
<path d="M262.343 5.72942H260.025V2.1868H262.343V5.72942ZM262.343 9.14083V30.7683H260.025V9.14083H262.343Z" fill="black"/>
<path d="M286.377 24.9514C286.377 25.7824 286.216 26.5769 285.896 27.335C285.59 28.0785 285.123 28.7346 284.497 29.3032C283.87 29.8571 283.083 30.3164 282.136 30.6808C281.203 31.0307 280.11 31.2421 278.857 31.315V29.325C280.503 29.2375 281.786 28.7856 282.704 27.9692C283.637 27.1528 284.103 26.1469 284.103 24.9514C284.103 23.9601 283.768 23.1947 283.098 22.6553C282.427 22.1159 281.582 21.6858 280.562 21.3651C279.556 21.0297 278.463 20.7382 277.283 20.4903C276.102 20.2425 275.002 19.8926 273.981 19.4407C272.976 18.9887 272.131 18.3983 271.446 17.6694C270.775 16.9404 270.44 15.9199 270.44 14.6078C270.44 13.806 270.6 13.0479 270.921 12.3336C271.256 11.6046 271.73 10.9705 272.342 10.431C272.954 9.89164 273.712 9.46157 274.615 9.14083C275.534 8.80552 276.576 8.62329 277.742 8.59413V10.5623C276.153 10.6206 274.929 11.0288 274.069 11.7869C273.209 12.5304 272.779 13.4415 272.779 14.5204C272.779 15.4097 273.114 16.0949 273.785 16.576C274.455 17.0571 275.293 17.458 276.299 17.7787C277.319 18.0849 278.412 18.3691 279.578 18.6316C280.744 18.894 281.83 19.2657 282.835 19.7468C283.855 20.2279 284.701 20.8767 285.371 21.6931C286.042 22.4949 286.377 23.581 286.377 24.9514ZM284.606 13.427C284.008 12.6543 283.214 12.0201 282.223 11.5244C281.232 11.0142 280.11 10.708 278.857 10.606V8.63787C280.533 8.72534 281.939 9.06794 283.076 9.66567C284.212 10.2634 285.153 10.9705 285.896 11.7869L284.606 13.427ZM271.336 26.1542C271.992 26.9851 272.874 27.6995 273.981 28.2972C275.089 28.8949 276.342 29.2375 277.742 29.325V31.315C276.124 31.2567 274.674 30.9505 273.391 30.3966C272.123 29.8426 270.979 28.997 269.959 27.8599L271.336 26.1542Z" fill="black"/>
<path d="M295.064 9.14083V3.2146H297.447V9.14083H301.841V11.1964H291.501V9.14083H295.064ZM299.327 31.315C297.899 31.315 296.828 30.9068 296.114 30.0904C295.414 29.2594 295.064 28.1004 295.064 26.6134V12.3117H297.447V26.2416C297.447 27.1018 297.622 27.8088 297.972 28.3628C298.336 28.9168 298.905 29.1938 299.677 29.1938C300.187 29.1938 300.661 29.0918 301.098 28.8877C301.535 28.6836 301.87 28.443 302.104 28.166L303 29.9592C302.577 30.382 302.082 30.71 301.513 30.9433C300.945 31.1911 300.216 31.315 299.327 31.315Z" fill="black"/>
</svg>
