<svg width="303" height="35" viewBox="0 0 303 35" fill="none" xmlns="http://www.w3.org/2000/svg">
<g clip-path="url(#clip0_77_1829)">
<path d="M18.2 13.6C18.2 15.2 18.5 16.7 19 18C19.5 19.3 20.2 20.5 21.1 21.6C22 22.6 23 23.4 24.3 24C25.5 24.6 26.8 25 28.3 25.1V27.2C26.5 27.1 24.9 26.7 23.4 26C21.9 25.3 20.6 24.3 19.5 23.2C18.4 22 17.5 20.6 16.9 19C16.3 17.4 16 15.6 16 13.7C16 11.8 16.3 10 16.9 8.4C17.5 6.8 18.4 5.4 19.5 4.2C20.6 3 21.9 2.1 23.4 1.4C24.9 0.7 26.6 0.3 28.3 0.2V2.2C26.9 2.3 25.6 2.7 24.3 3.3C23.1 3.9 22 4.7 21.1 5.7C20.2 6.7 19.5 7.9 19 9.3C18.5 10.7 18.2 12 18.2 13.6ZM36.9 5.9C36.1 4.7 35 3.8 33.6 3.1C32.2 2.4 30.8 2.1 29.2 2V0C31.3 0 33.1 0.5 34.7 1.3C36.3 2.1 37.6 3.3 38.7 4.7L36.9 5.9ZM38.8 22.5C37.6 24 36.2 25.1 34.7 25.9C33.1 26.7 31.3 27.2 29.2 27.2V25.1C30.8 25.1 32.2 24.8 33.6 24.1C34.9 23.4 36 22.5 36.9 21.3L38.8 22.5Z" fill="black"/>
<path d="M43.2 7.7H45.3V26.7H43.2V7.7ZM51.8 7.2C52.7 7.2 53.5 7.3 54.3 7.6C55.1 7.9 55.7 8.2 56.3 8.7C56.9 9.2 57.3 9.7 57.6 10.4C57.9 11.1 58.1 11.8 58.1 12.6V26.8H56V13C55.9 11.8 55.5 10.9 54.7 10.3C53.9 9.7 52.8 9.4 51.4 9.4C50.6 9.4 49.7 9.6 48.7 9.9C47.7 10.3 46.9 10.8 46.3 11.4V8.8C47 8.4 47.8 8 48.7 7.7C49.7 7.4 50.7 7.2 51.8 7.2Z" fill="black"/>
<path d="M70.8 27.2C69.9 27.2 69.1 27 68.3 26.7C67.5 26.4 66.9 26 66.3 25.5C65.7 25 65.3 24.4 65 23.7C64.7 23 64.5 22.3 64.5 21.5V7.7H66.5V21C66.5 22.4 66.9 23.4 67.8 24.1C68.6 24.8 69.7 25.1 71.1 25.1C71.5 25.1 71.9 25 72.4 24.9C72.9 24.8 73.3 24.6 73.8 24.3C74.3 24.1 74.7 23.8 75.1 23.5C75.5 23.2 75.9 22.9 76.2 22.6V25.2C75.6 25.6 74.8 26.1 73.8 26.6C72.9 27 71.9 27.2 70.8 27.2ZM79.3 26.7H77.2V7.7H79.3V26.7Z" fill="black"/>
<path d="M94.1 9.20001C93 9.20001 92.1 9.40001 91.2 9.70001C90.3 10.1 89.6 10.6 89 11.2C88.4 11.9 87.9 12.6 87.6 13.5C87.3 14.4 87 15.4 86.9 16.4H84.7C84.8 15.1 85 13.9 85.5 12.7C86 11.6 86.6 10.6 87.4 9.80001C88.2 9.00001 89.2 8.30001 90.3 7.80001C91.4 7.30001 92.6 7.10001 94 7.10001C95.7 7.10001 97 7.40001 98 8.00001C99 8.60001 99.9 9.40001 100.7 10.3L99.2 11.6C98.5 10.6 97.8 10 96.9 9.60001C96.1 9.40001 95.1 9.20001 94.1 9.20001ZM94 27.2C92.6 27.2 91.3 27 90.2 26.4C89.1 25.8 88.1 25.2 87.3 24.3C86.5 23.4 85.9 22.4 85.4 21.2C85 20 84.7 18.8 84.7 17.4H86.9C86.9 18.5 87.1 19.5 87.5 20.5C87.8 21.4 88.3 22.3 88.9 22.9C89.5 23.5 90.3 24.1 91.1 24.5C92 24.9 93 25.1 94.1 25.1C95.2 25.1 96.1 24.9 96.9 24.5C97.7 24.1 98.5 23.4 99.2 22.5L100.7 23.8C99.9 24.8 99 25.6 98 26.2C97 26.9 95.6 27.2 94 27.2Z" fill="black"/>
<path d="M104.2 17.2C104.2 15.9 104.4 14.6 104.8 13.4C105.2 12.2 105.8 11.2 106.5 10.3C107.2 9.4 108.1 8.7 109.2 8.1C110.3 7.6 111.5 7.3 112.8 7.2V9.1C111.8 9.2 110.9 9.4 110.1 9.9C109.3 10.4 108.6 11 108.1 11.7C107.5 12.5 107.1 13.3 106.9 14.2C106.6 15.1 106.5 16.1 106.5 17.1C106.5 18.1 106.6 19.1 106.9 20.1C107.2 21.1 107.6 21.9 108.1 22.6C108.7 23.3 109.3 24 110.1 24.4C110.9 24.9 111.8 25.2 112.8 25.2V27.1C111.5 27 110.3 26.7 109.2 26.2C108.1 25.7 107.2 24.9 106.5 24C105.8 23.1 105.2 22.1 104.8 20.9C104.4 19.7 104.2 18.5 104.2 17.2ZM122.5 17.2C122.5 18.5 122.3 19.8 121.9 21C121.5 22.2 120.9 23.2 120.2 24.1C119.5 25 118.6 25.7 117.5 26.3C116.4 26.9 115.2 27.2 113.9 27.2V25.3C115 25.2 115.9 25 116.7 24.5C117.5 24 118.2 23.4 118.7 22.7C119.3 22 119.7 21.1 119.9 20.1C120.2 19.1 120.3 18.1 120.3 17.1C120.3 16.1 120.2 15.1 119.9 14.1C119.6 13.2 119.2 12.3 118.7 11.6C118.1 10.9 117.5 10.3 116.7 9.8C115.9 9.3 115 9.1 113.9 9V7.2C115.2 7.3 116.4 7.5 117.5 8.1C118.6 8.7 119.5 9.4 120.2 10.3C120.9 11.2 121.5 12.2 121.9 13.4C122.3 14.6 122.5 15.9 122.5 17.2Z" fill="black"/>
<path d="M127.8 7.7H129.8V26.7H127.8V7.7ZM141 7.7H143.8L130.8 20.1V17.6L141 7.7ZM134 18.4L135.5 17.1L143.7 26.8H141L134 18.4Z" fill="black"/>
<path d="M155.4 26.7V0.399994H157.7V26.7H155.4ZM172.2 2.49999H158.7V0.499994H172.2V2.49999ZM173.2 0.399994H175.4V26.7H173.2V0.399994Z" fill="black"/>
<path d="M180.8 17.2C180.8 15.9 181 14.6 181.4 13.4C181.8 12.2 182.4 11.2 183.1 10.3C183.8 9.4 184.7 8.7 185.8 8.1C186.9 7.6 188.1 7.3 189.4 7.2V9.1C188.4 9.2 187.5 9.4 186.7 9.9C185.9 10.4 185.2 11 184.7 11.7C184.1 12.5 183.7 13.3 183.5 14.2C183.2 15.1 183.1 16.1 183.1 17.1C183.1 18.1 183.2 19.1 183.5 20.1C183.8 21.1 184.2 21.9 184.7 22.6C185.3 23.3 185.9 24 186.7 24.4C187.5 24.9 188.4 25.2 189.4 25.2V27.1C188.1 27 186.9 26.7 185.8 26.2C184.7 25.7 183.8 24.9 183.1 24C182.4 23.1 181.8 22.1 181.4 20.9C181 19.7 180.8 18.5 180.8 17.2ZM199.1 17.2C199.1 18.5 198.9 19.8 198.5 21C198.1 22.2 197.5 23.2 196.8 24.1C196.1 25 195.2 25.7 194.1 26.3C193 26.9 191.8 27.2 190.5 27.2V25.3C191.6 25.2 192.5 25 193.3 24.5C194.1 24 194.8 23.4 195.3 22.7C195.9 22 196.3 21.1 196.5 20.1C196.8 19.1 196.9 18.1 196.9 17.1C196.9 16.1 196.8 15.1 196.5 14.1C196.2 13.2 195.8 12.3 195.3 11.6C194.7 10.9 194.1 10.3 193.3 9.8C192.5 9.3 191.6 9.1 190.5 9V7.2C191.8 7.3 193 7.5 194.1 8.1C195.2 8.7 196.1 9.4 196.8 10.3C197.5 11.2 198.1 12.2 198.5 13.4C198.9 14.6 199.1 15.9 199.1 17.2Z" fill="black"/>
<path d="M204.4 7.7H206.4V26.7H204.4V7.7ZM217.6 7.7H220.4L207.4 20.1V17.6L217.6 7.7ZM210.6 18.4L212.1 17.1L220.3 26.8H217.7L210.6 18.4Z" fill="black"/>
<path d="M228.9 25.7L221.4 7.70001H223.7L230 23L228.9 25.7ZM223.4 32.3C223.6 32.4 223.9 32.5 224.2 32.5C224.5 32.6 224.8 32.6 225.1 32.6C225.7 32.6 226.3 32.4 226.7 32.1C227.2 31.8 227.6 31.2 228 30.2L237.5 7.60001H239.8L229.9 30.8C228.9 33.2 227.3 34.3 225 34.3C224.7 34.3 224.3 34.3 223.9 34.2C223.5 34.1 223.2 34.1 222.9 34L223.4 32.3Z" fill="black"/>
<path d="M243.3 7.7H245.4V26.7H243.3V7.7ZM251.8 7.2C252.7 7.2 253.5 7.3 254.3 7.6C255.1 7.9 255.7 8.2 256.3 8.7C256.9 9.2 257.3 9.7 257.6 10.4C257.9 11.1 258.1 11.8 258.1 12.6V26.8H256V13C255.9 11.8 255.5 10.9 254.7 10.3C253.9 9.7 252.8 9.4 251.4 9.4C250.6 9.4 249.7 9.6 248.7 9.9C247.7 10.3 246.9 10.8 246.3 11.4V8.8C246.9 8.4 247.7 8 248.7 7.7C249.7 7.4 250.7 7.2 251.8 7.2Z" fill="black"/>
<path d="M263.5 17.2C263.5 15.9 263.7 14.6 264.1 13.4C264.5 12.2 265.1 11.2 265.8 10.3C266.5 9.4 267.4 8.7 268.5 8.1C269.6 7.6 270.8 7.3 272.1 7.2V9.1C271.1 9.2 270.2 9.4 269.4 9.9C268.6 10.4 267.9 11 267.4 11.7C266.9 12.4 266.4 13.3 266.2 14.2C265.9 15.1 265.8 16.1 265.8 17.1C265.8 18.1 265.9 19.1 266.2 20.1C266.5 21.1 266.9 21.9 267.4 22.6C268 23.3 268.6 24 269.4 24.4C270.2 24.9 271.1 25.2 272.1 25.2V27.1C270.8 27 269.6 26.7 268.5 26.2C267.4 25.7 266.5 24.9 265.8 24C265.1 23.1 264.5 22.1 264.1 20.9C263.7 19.7 263.5 18.5 263.5 17.2ZM281.8 17.2C281.8 18.5 281.6 19.8 281.2 21C280.8 22.2 280.2 23.2 279.5 24.1C278.8 25 277.9 25.7 276.8 26.3C275.7 26.9 274.5 27.2 273.2 27.2V25.3C274.3 25.2 275.2 25 276 24.5C276.8 24 277.5 23.4 278 22.7C278.6 22 279 21.1 279.2 20.1C279.5 19.1 279.6 18.1 279.6 17.1C279.6 16.1 279.5 15.1 279.2 14.1C278.9 13.2 278.5 12.3 278 11.6C277.4 10.9 276.8 10.3 276 9.8C275.2 9.3 274.3 9.1 273.2 9V7.2C274.5 7.3 275.7 7.5 276.8 8.1C277.9 8.6 278.8 9.4 279.5 10.3C280.2 11.2 280.8 12.2 281.2 13.4C281.6 14.6 281.8 15.9 281.8 17.2Z" fill="black"/>
<path d="M287 7.7H289V26.7H287V7.7ZM300.3 7.7H303.1L290.1 20.1V17.6L300.3 7.7ZM293.3 18.4L294.8 17.1L303 26.8H300.4L293.3 18.4Z" fill="black"/>
<path d="M12.2254 2.94634L10.1976 2.09296L-0.00413773 26.3337L2.0236 27.187L12.2254 2.94634Z" fill="black"/>
</g>
<defs>
<clipPath id="clip0_77_1829">
<rect width="303" height="34.5" fill="white"/>
</clipPath>
</defs>
</svg>
