<svg width="129" height="270" viewBox="0 0 129 270" fill="none" xmlns="http://www.w3.org/2000/svg">
<path d="M30.6533 237L24.0001 268.301" stroke="#7DD0F4" stroke-width="2" stroke-linecap="round"/>
<path d="M24.4756 268.498L55.525 260.757" stroke="#7DD0F4" stroke-width="2" stroke-linecap="round"/>
<path d="M31.7567 1.00257C39.6324 1.00257 46.8907 0.750284 53.8108 5.24592C74.3923 18.6168 77.2433 44.8904 76.3149 67.5982C75.2147 94.505 72.4822 144.43 37.8578 150.668C17.8014 154.282 -4.7993 144.51 2.35136 120.815C10.9933 92.1785 43.2947 68.3354 71.2639 61.6076C90.7948 56.9096 121.594 56.9449 127.024 81.6762C129.448 92.7157 126.897 105.375 124.374 116.122C118.428 141.45 106.38 165.091 92.7679 187.111C76.7511 213.02 56.8515 238.234 33.5571 258" stroke="#7DD0F4" stroke-width="2" stroke-linecap="round"/>
</svg>
