<svg width="33" height="33" viewBox="0 0 33 33" fill="none" xmlns="http://www.w3.org/2000/svg">
<path d="M5.66797 32.2344C2.24023 32.2344 0.482422 30.4941 0.482422 27.1016V5.5332C0.482422 2.14062 2.24023 0.400391 5.66797 0.400391H27.1309C30.5586 0.400391 32.3164 2.1582 32.3164 5.5332V27.1016C32.3164 30.4766 30.5586 32.2344 27.1309 32.2344H5.66797ZM5.70312 30.0547H27.0781C29.0293 30.0547 30.1367 29.0176 30.1367 26.9785V5.65625C30.1367 3.61719 29.0293 2.58008 27.0781 2.58008H5.70312C3.73438 2.58008 2.66211 3.61719 2.66211 5.65625V26.9785C2.66211 29.0176 3.73438 30.0547 5.70312 30.0547ZM14.5098 24.6582C14.0527 24.6582 13.7012 24.4648 13.3672 24.0254L8.67383 18.4004C8.48047 18.1367 8.35742 17.8379 8.35742 17.5391C8.35742 16.9414 8.81445 16.4668 9.39453 16.4668C9.78125 16.4668 10.0801 16.5898 10.3965 17.0117L14.457 22.0039L22.4023 9.43555C22.6484 9.04883 23 8.83789 23.3516 8.83789C23.9141 8.83789 24.4414 9.24219 24.4414 9.83984C24.4414 10.1211 24.2832 10.4375 24.1426 10.6836L15.5996 24.0254C15.3184 24.4297 14.9492 24.6582 14.5098 24.6582Z" fill="#9DD8EC"/>
</svg>
