<svg width="33" height="33" viewBox="0 0 33 33" fill="none" xmlns="http://www.w3.org/2000/svg">
<path d="M5.66797 32.2344C2.24023 32.2344 0.482422 30.4941 0.482422 27.1016V5.5332C0.482422 2.14062 2.24023 0.400391 5.66797 0.400391H27.1309C30.5586 0.400391 32.3164 2.1582 32.3164 5.5332V27.1016C32.3164 30.4766 30.5586 32.2344 27.1309 32.2344H5.66797ZM5.70312 30.0547H27.0781C29.0293 30.0547 30.1367 29.0176 30.1367 26.9785V5.65625C30.1367 3.61719 29.0293 2.58008 27.0781 2.58008H5.70312C3.73438 2.58008 2.66211 3.61719 2.66211 5.65625V26.9785C2.66211 29.0176 3.73438 30.0547 5.70312 30.0547Z" fill="black"/>
</svg>
