<svg width="11" height="20" viewBox="0 0 11 20" fill="none" xmlns="http://www.w3.org/2000/svg">
<path d="M11 10C11 10.2686 10.9033 10.5049 10.6992 10.709L2.18066 19.0342C1.99805 19.2275 1.76172 19.3242 1.48242 19.3242C0.923828 19.3242 0.494141 18.9053 0.494141 18.3467C0.494141 18.0674 0.612305 17.8311 0.78418 17.6484L8.60449 10L0.78418 2.35156C0.612305 2.16895 0.494141 1.92188 0.494141 1.65332C0.494141 1.09473 0.923828 0.675781 1.48242 0.675781C1.76172 0.675781 1.99805 0.772461 2.18066 0.955078L10.6992 9.29102C10.9033 9.48438 11 9.73145 11 10Z" fill="#007AFF"/>
</svg>
