<svg width="44" height="44" viewBox="0 0 44 44" fill="none" xmlns="http://www.w3.org/2000/svg">
<path d="M23.8333 12.8333H5.5" stroke="#1C274C" stroke-width="1.5" stroke-linecap="round"/>
<path d="M18.3333 22H5.5" stroke="#1C274C" stroke-width="1.5" stroke-linecap="round"/>
<path d="M14.6667 31.1667H5.5" stroke="#1C274C" stroke-width="1.5" stroke-linecap="round"/>
<path d="M20.7465 30.6024C20.4348 31.295 20.7435 32.109 21.436 32.4205C22.1286 32.7322 22.9426 32.4234 23.2541 31.731L20.7465 30.6024ZM30.2503 12.8333L31.5041 12.2691C31.2821 11.7757 30.7913 11.4583 30.2503 11.4583C29.7093 11.4583 29.2185 11.7757 28.9965 12.2691L30.2503 12.8333ZM37.2465 31.731C37.558 32.4234 38.372 32.7322 39.0646 32.4205C39.757 32.109 40.0658 31.295 39.7541 30.6024L37.2465 31.731ZM25.0004 23.1249C24.241 23.1249 23.6254 23.7406 23.6254 24.4999C23.6254 25.2595 24.241 25.8749 25.0004 25.8749V23.1249ZM23.2541 31.731L31.5041 13.3976L28.9965 12.2691L20.7465 30.6024L23.2541 31.731ZM39.7541 30.6024L36.7542 23.9358L34.2464 25.0642L37.2465 31.731L39.7541 30.6024ZM36.7542 23.9358L31.5041 12.2691L28.9965 13.3976L34.2464 25.0642L36.7542 23.9358ZM35.5002 23.1249H25.0004V25.8749H35.5002V23.1249Z" fill="#1C274C"/>
</svg>
