<svg width="16" height="22" viewBox="0 0 16 22" fill="none" xmlns="http://www.w3.org/2000/svg">
<mask id="path-1-outside-1_320_6132" maskUnits="userSpaceOnUse" x="0" y="0" width="16" height="22" fill="black">
<rect fill="white" width="16" height="22"/>
<path d="M1.29541 13.5718C1.29541 11.8203 2.69824 9.96924 5.03076 9.12256L5.30469 5.3125C4.09277 4.62354 3.09668 3.84326 2.66504 3.28711C2.44922 3.00488 2.34961 2.72266 2.34961 2.47363C2.34961 1.96729 2.73145 1.59375 3.3208 1.59375H12.1694C12.7505 1.59375 13.1406 1.96729 13.1406 2.47363C13.1406 2.72266 13.0327 3.00488 12.8169 3.28711C12.3853 3.84326 11.3892 4.62354 10.1772 5.3125L10.4512 9.12256C12.7837 9.96924 14.1865 11.8203 14.1865 13.5718C14.1865 14.2773 13.7134 14.7422 12.9663 14.7422H8.47559V18.6187C8.47559 19.8887 7.94434 20.9429 7.74512 20.9429C7.5376 20.9429 7.00635 19.8887 7.00635 18.6187V14.7422H2.51562C1.76855 14.7422 1.29541 14.2773 1.29541 13.5718Z"/>
</mask>
<path d="M1.29541 13.5718C1.29541 11.8203 2.69824 9.96924 5.03076 9.12256L5.30469 5.3125C4.09277 4.62354 3.09668 3.84326 2.66504 3.28711C2.44922 3.00488 2.34961 2.72266 2.34961 2.47363C2.34961 1.96729 2.73145 1.59375 3.3208 1.59375H12.1694C12.7505 1.59375 13.1406 1.96729 13.1406 2.47363C13.1406 2.72266 13.0327 3.00488 12.8169 3.28711C12.3853 3.84326 11.3892 4.62354 10.1772 5.3125L10.4512 9.12256C12.7837 9.96924 14.1865 11.8203 14.1865 13.5718C14.1865 14.2773 13.7134 14.7422 12.9663 14.7422H8.47559V18.6187C8.47559 19.8887 7.94434 20.9429 7.74512 20.9429C7.5376 20.9429 7.00635 19.8887 7.00635 18.6187V14.7422H2.51562C1.76855 14.7422 1.29541 14.2773 1.29541 13.5718Z" fill="black"/>
<path d="M5.03076 9.12256L5.37197 10.0625L5.98167 9.84123L6.02819 9.19427L5.03076 9.12256ZM5.30469 5.3125L6.30211 5.38421L6.34735 4.75495L5.7989 4.44316L5.30469 5.3125ZM2.66504 3.28711L1.87066 3.89458L1.87505 3.90023L2.66504 3.28711ZM12.8169 3.28711L13.6069 3.90025L13.6113 3.89456L12.8169 3.28711ZM10.1772 5.3125L9.68303 4.44316L9.13458 4.75495L9.17982 5.38421L10.1772 5.3125ZM10.4512 9.12256L9.45375 9.19427L9.50026 9.84123L10.11 10.0625L10.4512 9.12256ZM8.47559 14.7422V13.7422H7.47559V14.7422H8.47559ZM7.00635 14.7422H8.00635V13.7422H7.00635V14.7422ZM2.29541 13.5718C2.29541 12.3534 3.31773 10.8082 5.37197 10.0625L4.68956 8.18257C2.07876 9.13026 0.29541 11.2872 0.29541 13.5718H2.29541ZM6.02819 9.19427L6.30211 5.38421L4.30726 5.24079L4.03334 9.05085L6.02819 9.19427ZM5.7989 4.44316C4.62511 3.77587 3.76543 3.07393 3.45503 2.67399L1.87505 3.90023C2.42793 4.61259 3.56044 5.4712 4.81047 6.18184L5.7989 4.44316ZM3.4594 2.67966C3.34486 2.52988 3.34961 2.45554 3.34961 2.47363H1.34961C1.34961 2.98977 1.55358 3.47989 1.87068 3.89456L3.4594 2.67966ZM3.34961 2.47363C3.34961 2.47329 3.34963 2.47706 3.3482 2.48427C3.34677 2.49152 3.34407 2.50127 3.33925 2.51265C3.32903 2.53677 3.31294 2.55966 3.29378 2.57741C3.28475 2.58578 3.27652 2.59161 3.27021 2.59541C3.26393 2.5992 3.26035 2.60048 3.26059 2.60039C3.26085 2.60029 3.27909 2.59375 3.3208 2.59375V0.59375C2.81334 0.59375 2.3155 0.757366 1.93461 1.11022C1.54956 1.46692 1.34961 1.95825 1.34961 2.47363H3.34961ZM3.3208 2.59375H12.1694V0.59375H3.3208V2.59375ZM12.1694 2.59375C12.2075 2.59375 12.2245 2.5998 12.2252 2.60003C12.2255 2.60015 12.2129 2.59542 12.1956 2.57947C12.1779 2.56324 12.1622 2.54154 12.1518 2.5174C12.1415 2.49338 12.1406 2.4767 12.1406 2.47363H14.1406C14.1406 1.95178 13.9339 1.46141 13.5503 1.10815C13.1711 0.759011 12.6756 0.59375 12.1694 0.59375V2.59375ZM12.1406 2.47363C12.1406 2.45401 12.1446 2.46243 12.1293 2.5014C12.114 2.54022 12.0825 2.60125 12.0225 2.67966L13.6113 3.89456C13.9157 3.49646 14.1406 3.006 14.1406 2.47363H12.1406ZM12.0269 2.67399C11.7165 3.07393 10.8568 3.77587 9.68303 4.44316L10.6715 6.18184C11.9215 5.4712 13.054 4.61259 13.6069 3.90023L12.0269 2.67399ZM9.17982 5.38421L9.45375 9.19427L11.4486 9.05085L11.1747 5.24079L9.17982 5.38421ZM10.11 10.0625C12.1642 10.8082 13.1865 12.3534 13.1865 13.5718H15.1865C15.1865 11.2872 13.4032 9.13026 10.7924 8.18257L10.11 10.0625ZM13.1865 13.5718C13.1865 13.6363 13.1758 13.6722 13.17 13.6871C13.167 13.6947 13.1646 13.6986 13.1637 13.7C13.1628 13.7014 13.1623 13.7019 13.1619 13.7022C13.1615 13.7026 13.1597 13.7043 13.1553 13.707C13.1509 13.7098 13.1425 13.7143 13.1289 13.7193C13.1016 13.7292 13.0497 13.7422 12.9663 13.7422V15.7422C13.5487 15.7422 14.1198 15.5575 14.5512 15.1409C14.9858 14.7213 15.1865 14.1547 15.1865 13.5718H13.1865ZM12.9663 13.7422H8.47559V15.7422H12.9663V13.7422ZM7.47559 14.7422V18.6187H9.47559V14.7422H7.47559ZM7.47559 18.6187C7.47559 19.1213 7.36893 19.584 7.24826 19.9072C7.18703 20.0711 7.13273 20.1708 7.10705 20.21C7.09215 20.2327 7.10517 20.2071 7.15192 20.1635C7.17595 20.1411 7.22856 20.0955 7.31005 20.0513C7.38847 20.0089 7.54002 19.9429 7.74512 19.9429V21.9429C8.16953 21.9429 8.44294 21.6943 8.51548 21.6267C8.62942 21.5205 8.71663 21.4026 8.77954 21.3067C8.90951 21.1085 9.02538 20.8652 9.12186 20.6069C9.31661 20.0854 9.47559 19.386 9.47559 18.6187H7.47559ZM7.74512 19.9429C7.94165 19.9429 8.08845 20.0038 8.16763 20.0454C8.24904 20.0882 8.30206 20.1329 8.327 20.1556C8.37523 20.1995 8.3891 20.226 8.37461 20.2042C8.34959 20.1666 8.29537 20.0685 8.23396 19.9051C8.11303 19.5834 8.00635 19.1214 8.00635 18.6187H6.00635C6.00635 19.3859 6.16529 20.086 6.36187 20.6089C6.4592 20.8678 6.57671 21.1126 6.70967 21.3124C6.77416 21.4093 6.86358 21.528 6.98058 21.6345C7.06061 21.7074 7.33113 21.9429 7.74512 21.9429V19.9429ZM8.00635 18.6187V14.7422H6.00635V18.6187H8.00635ZM7.00635 13.7422H2.51562V15.7422H7.00635V13.7422ZM2.51562 13.7422C2.43224 13.7422 2.3803 13.7292 2.35304 13.7193C2.33939 13.7143 2.33103 13.7098 2.32659 13.707C2.32223 13.7043 2.32042 13.7026 2.32002 13.7022C2.31964 13.7019 2.31914 13.7014 2.31824 13.7C2.31732 13.6986 2.31491 13.6947 2.31192 13.6871C2.3061 13.6722 2.29541 13.6363 2.29541 13.5718H0.29541C0.29541 14.1547 0.496167 14.7213 0.930709 15.1409C1.36212 15.5575 1.93323 15.7422 2.51562 15.7422V13.7422Z" fill="black" mask="url(#path-1-outside-1_320_6132)"/>
</svg>
