<svg width="182" height="154" viewBox="0 0 182 154" fill="none" xmlns="http://www.w3.org/2000/svg">
<path d="M26.1636 105.402C30.4079 126.606 32.53 137.207 39.5422 144.036C40.8382 145.298 42.2403 146.447 43.733 147.469C51.8095 153 62.6305 153 84.2723 153H97.7274C119.37 153 130.191 153 138.267 147.469C139.76 146.447 141.161 145.298 142.458 144.036C149.47 137.207 151.592 126.606 155.836 105.402C161.93 74.9597 164.977 59.7384 157.963 48.9527C156.693 46.9997 155.211 45.1932 153.544 43.566C144.334 34.5789 128.798 34.5789 97.7274 34.5789H84.2723C53.2016 34.5789 37.6663 34.5789 28.4568 43.566C26.7892 45.1932 25.3069 46.9997 24.0371 48.9527C17.0234 59.7384 20.0701 74.9597 26.1636 105.402Z" fill="white" stroke="black" stroke-width="2"/>
<path d="M114.308 82.2632C116.796 82.2632 118.812 80.2484 118.812 77.7632C118.812 75.2779 116.796 73.2632 114.308 73.2632C111.821 73.2632 109.805 75.2779 109.805 77.7632C109.805 80.2484 111.821 82.2632 114.308 82.2632Z" fill="black"/>
<path d="M66.9002 82.2632C69.3875 82.2632 71.4039 80.2485 71.4039 77.7632C71.4039 75.2779 69.3875 73.2632 66.9002 73.2632C64.4129 73.2632 62.3965 75.2779 62.3965 77.7632C62.3965 80.2485 64.4129 82.2632 66.9002 82.2632Z" fill="black"/>
<path d="M67.2959 32.5789V24.6842C67.2959 11.6038 77.9081 1 90.9997 1C104.091 1 114.703 11.6038 114.703 24.6842V32.5789" stroke="black" stroke-width="2" stroke-miterlimit="3.8637" stroke-linecap="round" stroke-dasharray="10 10"/>
<path d="M111.075 100C111.075 107.68 101.889 112 90.558 112C79.2268 112 70.041 106.627 70.041 100" stroke="black" stroke-width="1.5"/>
<line x1="154.541" y1="108.545" x2="180.541" y2="82.5446" stroke="black" stroke-width="2"/>
<line x1="0.707107" y1="82.2929" x2="26.7071" y2="108.293" stroke="black" stroke-width="2"/>
</svg>
