<svg width="217" height="301" viewBox="0 0 217 301" fill="none" xmlns="http://www.w3.org/2000/svg">
<mask id="path-1-inside-1_4001_26561" fill="white">
<path d="M73.4297 47.4475V35.5856C73.4297 15.9323 89.1183 0 108.472 0C127.827 0 143.515 15.9323 143.515 35.5856V47.4475"/>
</mask>
<path d="M63.9419 47.4475C63.9419 52.6875 68.1897 56.9353 73.4297 56.9353C78.6697 56.9353 82.9175 52.6875 82.9175 47.4475H63.9419ZM134.027 47.4475C134.027 52.6875 138.275 56.9353 143.515 56.9353C148.755 56.9353 153.003 52.6875 153.003 47.4475H134.027ZM73.4297 47.4475H82.9175V35.5856H73.4297H63.9419V47.4475H73.4297ZM73.4297 35.5856H82.9175C82.9175 21.0341 94.4954 9.4878 108.472 9.4878V0V-9.4878C83.7413 -9.4878 63.9419 10.8304 63.9419 35.5856H73.4297ZM108.472 0V9.4878C122.45 9.4878 134.027 21.0341 134.027 35.5856H143.515H153.003C153.003 10.8304 133.204 -9.4878 108.472 -9.4878V0ZM143.515 35.5856H134.027V47.4475H143.515H153.003V35.5856H143.515Z" fill="#8AC2FF" mask="url(#path-1-inside-1_4001_26561)"/>
<rect x="0.5" y="47.2559" width="216.383" height="253.69" rx="28.4634" fill="#FFFF80"/>
<path d="M133.091 207.819C133.091 219.359 122.278 225.849 108.94 225.849C95.6019 225.849 84.7891 217.777 84.7891 207.819" stroke="#FFC248" stroke-width="9.4878"/>
<circle cx="55.0558" cy="140.894" r="39.3744" fill="#ABE5FF" stroke="#55A6FF" stroke-width="9.4878"/>
<circle cx="162.267" cy="140.894" r="39.3744" fill="#ABE5FF" stroke="#55A6FF" stroke-width="9.4878"/>
<rect x="93.0056" y="137.098" width="28.4634" height="8.53902" fill="#55A6FF" stroke="#55A6FF" stroke-width="0.94878"/>
<rect x="141.867" y="133.872" width="25.6171" height="9.4878" rx="4.7439" transform="rotate(-34 141.867 133.872)" fill="white"/>
<rect x="35.6016" y="133.872" width="25.6171" height="9.4878" rx="4.7439" transform="rotate(-34 35.6016 133.872)" fill="white"/>
<rect x="155.148" y="148.104" width="25.6171" height="9.4878" rx="4.7439" transform="rotate(-34 155.148 148.104)" fill="white"/>
<rect x="48.8828" y="148.104" width="25.6171" height="9.4878" rx="4.7439" transform="rotate(-34 48.8828 148.104)" fill="white"/>
</svg>
