<svg width="325" height="229" viewBox="0 0 325 229" fill="none" xmlns="http://www.w3.org/2000/svg">
<mask id="path-1-inside-1_4001_26573" fill="white">
<path d="M90.0156 35.9587V26.969C90.0156 12.0745 122.467 0 162.501 0C202.535 0 234.986 12.0745 234.986 26.969V35.9587"/>
</mask>
<path d="M80.0156 35.9587C80.0156 41.4815 84.4928 45.9587 90.0156 45.9587C95.5385 45.9587 100.016 41.4815 100.016 35.9587H80.0156ZM224.986 35.9587C224.986 41.4815 229.464 45.9587 234.986 45.9587C240.509 45.9587 244.986 41.4815 244.986 35.9587H224.986ZM90.0156 35.9587H100.016V26.969H90.0156H80.0156V35.9587H90.0156ZM90.0156 26.969H100.016C100.016 26.9566 100.016 26.9217 100.037 26.8447C100.059 26.7628 100.115 26.5999 100.25 26.3528C100.534 25.8376 101.135 25.0194 102.317 23.9798C104.742 21.8465 108.825 19.4693 114.733 17.2714C126.472 12.9037 143.358 10 162.501 10V0V-10C141.61 -10 122.254 -6.86643 107.759 -1.47325C100.549 1.20921 94.0175 4.64337 89.1068 8.96311C84.2128 13.2683 80.0156 19.3272 80.0156 26.969H90.0156ZM162.501 0V10C181.644 10 198.53 12.9037 210.269 17.2714C216.177 19.4693 220.26 21.8465 222.685 23.9798C223.867 25.0194 224.468 25.8376 224.752 26.3528C224.887 26.5999 224.943 26.7628 224.965 26.8447C224.986 26.9217 224.986 26.9566 224.986 26.969H234.986H244.986C244.986 19.3272 240.789 13.2683 235.895 8.96311C230.985 4.64337 224.453 1.20921 217.244 -1.47325C202.748 -6.86643 183.392 -10 162.501 -10V0ZM234.986 26.969H224.986V35.9587H234.986H244.986V26.969H234.986Z" fill="#1C1C1E" mask="url(#path-1-inside-1_4001_26573)"/>
<rect y="36" width="325" height="193" rx="21.6587" fill="#C5F2C8"/>
<rect x="173.422" y="86.3613" width="35.4587" height="59.1157" rx="17.7293" fill="white" stroke="black" stroke-width="0.5"/>
<rect x="107.18" y="86.3613" width="35.4587" height="59.1157" rx="17.7293" fill="white" stroke="black" stroke-width="0.5"/>
<rect x="179.797" y="123.963" width="22.7107" height="21.7645" rx="10.8822" fill="black"/>
<rect x="147.617" y="161.814" width="22.7107" height="21.7645" rx="10.8822" fill="black"/>
<rect x="113.555" y="123.963" width="22.7107" height="21.7645" rx="10.8822" fill="black"/>
</svg>
