<svg width="24" height="25" viewBox="0 0 24 25" fill="none" xmlns="http://www.w3.org/2000/svg">
<path d="M12 24.4922C5.40234 24.4922 0.046875 19.1367 0.046875 12.5391C0.046875 5.94141 5.40234 0.585938 12 0.585938C18.5977 0.585938 23.9531 5.94141 23.9531 12.5391C23.9531 19.1367 18.5977 24.4922 12 24.4922ZM12 22.5C17.5078 22.5 21.9609 18.0469 21.9609 12.5391C21.9609 7.03125 17.5078 2.57812 12 2.57812C6.49219 2.57812 2.03906 7.03125 2.03906 12.5391C2.03906 18.0469 6.49219 22.5 12 22.5ZM6.52734 14.2266C5.58984 14.2266 4.82812 13.4648 4.82812 12.5273C4.82812 11.5898 5.58984 10.8281 6.52734 10.8281C7.44141 10.8281 8.21484 11.5898 8.21484 12.5273C8.21484 13.4648 7.45312 14.2266 6.52734 14.2266ZM11.9883 14.2266C11.0508 14.2266 10.2891 13.4648 10.2891 12.5273C10.2891 11.5898 11.0508 10.8281 11.9883 10.8281C12.9258 10.8281 13.6875 11.5898 13.6875 12.5273C13.6875 13.4648 12.9258 14.2266 11.9883 14.2266ZM17.4609 14.2266C16.5234 14.2266 15.7617 13.4648 15.7617 12.5273C15.7617 11.5898 16.5234 10.8281 17.4609 10.8281C18.3867 10.8281 19.1602 11.5898 19.1602 12.5273C19.1602 13.4648 18.3867 14.2266 17.4609 14.2266Z" fill="#007AFF"/>
</svg>
